<?xml version="1.0" encoding="utf-8"?>
<!-- Svg Vector Icons : http://www.onlinewebfonts.com/icon -->
<!DOCTYPE svg PUBLIC "-//W3C//DTD SVG 1.1//EN" "http://www.w3.org/Graphics/SVG/1.1/DTD/svg11.dtd">
<svg version="1.1" xmlns="http://www.w3.org/2000/svg" xmlns:xlink="http://www.w3.org/1999/xlink" x="0px" y="0px" viewBox="0 0 1000 1000" enable-background="new 0 0 1000 1000" xml:space="preserve">
<metadata> Svg Vector Icons : http://www.onlinewebfonts.com/icon </metadata>
<g><g transform="translate(0.000000,374.000000) scale(0.100000,-0.100000)"><path d="M3541.6,2307.6c-57.5-1.9-182.1-13.4-277.9-24.9C2048.7,2137,1013.8,1539.1,310.4,577C78.5,258.8,51.7,159.2,164.8,57.6c76.7-69,124.6-69,308.6-3.8c170.6,59.4,450.4,80.5,619,46c189.7-40.2,366-139.9,519.4-295.1c239.6-241.5,358.4-500.2,373.7-812.6c5.8-141.8,0-201.2-32.6-308.5c-53.7-176.3-51.8-220.4,13.4-291.3c44.1-51.7,70.9-63.2,187.8-76.7c335.4-42.2,523.2-174.4,657.4-461.9c74.7-157.1,101.6-337.3,76.7-517.5c-26.8-189.7-90.1-318.1-226.1-465.7c-128.4-138-151.4-195.5-115-281.7c34.5-88.2,120.7-132.2,253-132.2c138,0,383.3-49.8,473.4-95.8c82.4-42.2,143.7-107.3,170.6-178.2c32.6-84.3,24.9-291.3-17.2-492.5c-69-322-51.7-454.2,69-498.3c97.7-38.3,145.7-23,226.1,69c266.4,302.8,414,408.2,624.8,448.5c138,26.8,276-1.9,379.5-78.6c61.3-44.1,99.7-99.6,166.7-235.7c107.3-218.5,180.1-264.5,312.4-195.5c59.4,30.7,74.8,57.5,149.5,251.1c145.7,381.4,463.8,678.4,822.2,766.6c254.9,63.2,483,7.7,709.1-172.5c201.2-161,241.5-161,412.1,1.9c212.7,203.2,484.9,287.5,860.5,270.2c345-15.3,576.9-109.2,785.8-318.2c115-115,185.9-224.2,239.6-368c53.7-139.9,105.4-191.7,205-203.1c134.2-15.3,180.2,42.2,291.3,369.9c268.3,803,291.3,1613.7,67.1,2412.9c-195.5,699.5-557.7,1337.7-1029.2,1813c-297.1,300.9-488.7,398.6-611.3,312.4c-59.4-42.2-76.7-82.4-111.2-260.6c-124.6-657.4-440.8-1136.5-847.1-1282.1c-149.5-53.7-408.2-63.2-573-21.1l-99.7,26.8L6541-1075c118.8,235.7,203.1,553.9,231.9,887.3c19.2,222.3-44.1,323.9-199.3,323.9c-30.7,0-118.8-46-220.4-113.1L6184.5-88L6058-5.6c-69,44.1-187.8,105.4-264.5,132.2l-139.9,51.7l-7.7,207c-5.8,187.8-11.5,212.7-51.7,256.8c-61.3,65.2-153.3,80.5-237.6,40.3c-36.4-17.2-161-128.4-276-245.3C4871.7,222.4,4705-5.6,4639.8-162.8c-19.2-46-40.2-84.3-47.9-84.3c-28.8,0-228.1,201.2-289.4,293.2c-180.2,272.1-201.2,611.4-57.5,967.8c93.9,235.7,230,442.7,465.7,712.9c147.6,166.7,159.1,193.6,134.2,287.5c-24.9,90.1-65.2,120.7-245.3,184C4381.1,2273.1,3898.1,2322.9,3541.6,2307.6z M4112.8,1897.5c101.6-11.5,189.7-23,193.6-26.8c3.8-3.8-23-44.1-59.4-90.1c-193.6-241.5-368-569.2-440.8-831.8c-32.6-120.7-42.2-203.1-42.2-400.5c0-222.3,5.7-266.4,53.7-402.5c103.5-300.9,314.3-561.5,611.4-758.9c249.1-162.9,346.9-184,452.3-97.7c32.6,24.9,46,65.2,59.4,162.9c19.2,153.3,93.9,320.1,220.4,492.5l92,124.6l26.8-78.6c36.4-109.2,90.1-151.4,235.7-187.8c159.1-40.2,329.6-124.6,444.6-218.5c151.4-126.5,189.7-134.2,345-70.9c30.7,11.5,30.7,1.9-5.8-124.6c-57.5-208.9-141.8-366.1-260.7-481c-101.6-97.7-105.4-105.4-95.8-184c11.5-101.6,34.5-130.3,155.2-191.7c446.5-226.2,962.1-239.6,1353-32.6c383.3,201.2,693.8,628.6,845.2,1167.1c24.9,84.3,47.9,157.2,49.8,161c11.5,15.3,176.3-155.2,299-304.7c488.7-603.7,814.5-1439.3,852.9-2182.9c17.3-343-3.8-653.5-63.2-952.5c-26.8-136.1-53.7-249.2-57.5-253c-3.8-3.8-67.1,51.7-138,124.6c-270.2,274.1-605.6,423.5-1025.3,458c-364.1,28.8-820.3-88.2-1063.7-274.1l-61.3-47.9l-111.2,69c-207,126.5-325.8,155.2-619,153.3c-241.5,0-268.3-3.8-417.8-59.4c-86.2-34.5-208.9-92-272.1-130.3c-151.4-92-392.9-323.9-488.7-467.6c-42.2-63.2-82.4-116.9-88.2-116.9c-5.8,0-46,30.7-88.2,67.1c-272.1,231.9-668.9,266.4-1023.4,86.2l-107.3-53.7l-11.5,139.9c-17.3,193.6-74.8,333.5-185.9,456.1c-107.3,116.9-222.3,184-414,243.4l-136.1,40.2l46,90.1c159.1,323.9,159.1,758.9-1.9,1103.9c-149.5,323.9-412,561.5-711,642l-76.7,19.2v235.7c-1.9,329.6-63.2,546.2-237.6,847.1c-266.4,454.2-691.9,718.7-1217,757L757,529.1l185.9,195.5c515.5,540.4,1123.1,891.2,1870.5,1077.1C3242.7,1909,3708.4,1943.5,4112.8,1897.5z"/></g></g>
</svg>