<?xml version="1.0" encoding="utf-8"?>
<!-- Svg Vector Icons : http://www.onlinewebfonts.com/icon -->
<!DOCTYPE svg PUBLIC "-//W3C//DTD SVG 1.1//EN" "http://www.w3.org/Graphics/SVG/1.1/DTD/svg11.dtd">
<svg version="1.1" xmlns="http://www.w3.org/2000/svg" xmlns:xlink="http://www.w3.org/1999/xlink" x="0px" y="0px" viewBox="0 0 1000 1000" enable-background="new 0 0 1000 1000" xml:space="preserve">
<metadata> Svg Vector Icons : http://www.onlinewebfonts.com/icon </metadata>
<g><g transform="translate(0.000000,185.000000) scale(0.100000,-0.100000)"><path d="M2922.6,311.2C2087.4,160.4,1287-264.9,680-872c-228.1-224.2-580-680.5-580-746.2c0-11.6,73.5,3.9,158.5,34.8c88.9,30.9,293.9,58,456.2,58c580,0,1009.2-328.7,1221.8-928c81.2-220.4,81.2-638,7.7-819.7l-58-139.2l154.7-23.2c220.4-34.8,421.5-147,583.8-328.7c212.7-232,270.7-402.1,274.5-757.9c0-324.8-38.7-444.6-232-699.8l-88.9-123.7l220.4-27.1c270.7-30.9,498.8-131.4,626.4-266.8c85.1-92.8,96.7-143.1,96.7-382.8c0-154.7-15.5-359.6-34.8-464l-30.9-181.7l243.6,243.6c502.7,495,966.6,541.3,1183.2,112.1l81.2-166.3l96.7,212.7c123.7,266.8,363.5,506.5,641.9,634.1c181.7,85.1,270.7,100.6,545.2,100.6c359.6-3.9,576.1-73.5,796.5-259.1l119.9-104.4l73.4,81.2c116,131.4,417.6,262.9,703.7,313.2c661.2,112.1,1326.2-197.2,1562.1-726.9c38.7-92.8,77.3-170.1,85.1-170.1c27,0,177.9,456.2,239.7,734.6c85.1,351.9,96.7,1221.9,23.2,1566c-181.7,850.6-568.4,1593-1109.7,2138.2c-154.7,150.8-309.3,278.4-340.2,278.4c-42.5,0-77.3-85.1-119.9-286.1c-135.3-599.3-464-1090.4-866.1-1287.6c-286.1-139.2-684.4-146.9-1024.6-15.4l-220.4,88.9l131.5,154.7c158.5,185.6,243.6,402.1,309.3,815.8c50.3,293.9,38.7,351.9-54.1,239.7c-27.1-30.9-104.4-92.8-177.9-135.3l-127.6-81.2l-158.5,116c-85.1,61.9-243.6,135.3-348,162.4c-208.8,54.1-232,88.9-232,394.4c0,166.3-7.7,177.9-65.7,139.2c-127.6-85.1-487.2-518.1-576.1-692.1c-50.3-96.7-92.8-220.4-92.8-278.4c0-61.9-11.6-108.3-30.9-108.3c-81.2,0-452.4,297.7-568.4,456.2c-262.9,363.5-313.2,788.8-143.1,1237.3c73.5,185.6,336.4,610.9,533.6,846.8l100.5,127.6L4562,257.1C4233.3,380.8,3448.4,404,2922.6,311.2z"/></g></g>
</svg>