<?xml version="1.0" encoding="utf-8"?>
<!-- Svg Vector Icons : http://www.onlinewebfonts.com/icon -->
<!DOCTYPE svg PUBLIC "-//W3C//DTD SVG 1.1//EN" "http://www.w3.org/Graphics/SVG/1.1/DTD/svg11.dtd">
<svg version="1.1" xmlns="http://www.w3.org/2000/svg" xmlns:xlink="http://www.w3.org/1999/xlink" x="0px" y="0px" viewBox="0 0 1000 1000" enable-background="new 0 0 1000 1000" xml:space="preserve">
<metadata> Svg Vector Icons : http://www.onlinewebfonts.com/icon </metadata>
<g><g><g><path d="M884.5,303.1c-26.7-83.4-104.9-143.8-197.1-143.8c-105.8,0-192.9,79.4-205.4,181.9c0,0-0.1,0.1-0.1,0.1c-50.1-7.2-97.2-85.6-145.4-222.5c-107.6,127.9-101,269.6-68.6,322.7C199.3,449,67.5,408.9,10,377.6c100.2,224.1,243.6,333.6,384,363.6c47.6,25.2,101.7,39.9,159.4,39.9c6.1,0,12.1-0.6,18.1-0.9l-28.6,48.5l-60.4,19.8l4.9,14.9l58.5-19.1l27.5,28.2l11.2-10.9L557.8,834l32.4-55c22.3-2.4,44-6.9,64.7-13.4l61.9,79.1l-52.5,19.5l5.4,14.7l59.5-22.1l54.8,24.5l6.4-14.3l-55.9-25l-64.2-82c129.7-47.6,222.7-171.5,223.8-317.4c1.6-5,3.1-9.7,4.3-14.1c2.4-8.2,91.4-96.9,91.4-96.9L884.5,303.1z M768.2,378.5c-31.4,0-56.8-25.5-56.8-56.9c0-31.4,25.4-56.8,56.8-56.8c31.4,0,56.9,25.5,56.9,56.8C825,353.1,799.6,378.5,768.2,378.5z"/><path d="M772.1,293.2L772.1,293.2c1.2,2.2,2,4.7,2,7.4c0,8.7-7.1,15.8-15.7,15.8c-5.1,0-9.4-2.5-12.2-6.2c-1.6,3.5-2.5,7.4-2.5,11.5c0,15.7,12.7,28.4,28.4,28.4c15.7,0,28.4-12.7,28.4-28.4C800.5,306,787.8,293.2,772.1,293.2z"/></g></g><g></g><g></g><g></g><g></g><g></g><g></g><g></g><g></g><g></g><g></g><g></g><g></g><g></g><g></g><g></g></g>
</svg>