<?xml version="1.0" encoding="utf-8"?>
<!-- Svg Vector Icons : http://www.onlinewebfonts.com/icon -->
<!DOCTYPE svg PUBLIC "-//W3C//DTD SVG 1.1//EN" "http://www.w3.org/Graphics/SVG/1.1/DTD/svg11.dtd">
<svg version="1.1" xmlns="http://www.w3.org/2000/svg" xmlns:xlink="http://www.w3.org/1999/xlink" x="0px" y="0px" viewBox="0 0 1000 1000" enable-background="new 0 0 1000 1000" xml:space="preserve">
<metadata> Svg Vector Icons : http://www.onlinewebfonts.com/icon </metadata>
<g><g><g id="Layer_3_18_"><path d="M990,679.8l-15.9-50.1c-1.2,0.4-118.8,37.1-293.1,52.6c-38.8,3.4-82.3,5.9-129.4,6.5c86.9-11.2,159.8-50,219.6-114.3c139.5,2,190.4-39.7,202.3-62.4c1.4-2.7,4.8-12.1,4.8-14.3c-3.5-0.1-36,13.2-74.6,8.4c-28.2-3.5-58-15.4-88.5-33.3c37-32.5,57.7-73.6,68.7-95.2l16-37.3c0,0-82.2,3.3-201.5-67.2c-52.8-31.2-104.7-58.5-148.6-68.9c-11-15.4-21.4-30.6-31.1-45.3c-63.3-96-255.2-178.2-379.9,52.6c0,0-50.4,21.5-71.6,30.4v4.8c17.4,12.7,34.8,25.3,52,38.2c-17,10.6-33.9,21.4-50.8,32.1c0.3,1.6,0.5,3.1,0.8,4.7c20.6,10.3,41.3,20.4,61.7,31c1.1,0.6,2.2,1.5,3.2,2.5c8.4,45.9,24.5,89.6,47.2,131.3c55.9,102.8,139.7,169.6,254.2,196.9c1.4,0.3,2.8,1,3.6,1.3c-0.1,0.5-0.2,1-0.3,1.5c-124.2-7-264-29.4-403.7-80.8l-18.2,49.3c42.7,15.7,85.3,28.8,127.6,39.6c-60,33.3-124.6,83.2-134.7,91l32.3,41.4c100.1-82.7,182.1-114.4,182.1-114.4c109.7,21.5,214.5,28.9,307,28.9c56.6,0,108.6-2.8,154.2-6.8c48.4-4.3,92.3-10.1,130.9-16.4c-12.2,19.2-33.9,43.8-72.3,64.8c-30.3,16.6-66.1,20.1-104,23.7c-60.6,5.9-129.3,12.5-175.3,80.1l43.4,29.6c27.8-40.8,67.9-49.9,114.6-55.1L594,911l45.4,26.5l48.6-83.2c27.7-4,55.3-10.7,81.5-25.1c76.8-42.1,102.6-98.8,110.3-122.4C947.1,693.3,987.2,680.7,990,679.8z M255.2,274c-18.7-0.1-33.8-15.1-33.9-33.8c-0.1-19,15.2-34.5,34.1-34.5c19,0,34.3,15.3,34.3,34.3C289.7,259,274.4,274.1,255.2,274z M427.1,298.1c19.1-187.9,295.1,93.1,402.7,72.2c-12.6,24.8-24.3,48.5-41.5,68.8c17.2-20.3-32.7,38.6,0,0C675.3,572.4,408.4,481.2,427.1,298.1z"/></g></g><g></g><g></g><g></g><g></g><g></g><g></g><g></g><g></g><g></g><g></g><g></g><g></g><g></g><g></g><g></g></g>
</svg>