<?xml version="1.0" encoding="utf-8"?>
<!-- Svg Vector Icons : http://www.onlinewebfonts.com/icon -->
<!DOCTYPE svg PUBLIC "-//W3C//DTD SVG 1.1//EN" "http://www.w3.org/Graphics/SVG/1.1/DTD/svg11.dtd">
<svg version="1.1" xmlns="http://www.w3.org/2000/svg" xmlns:xlink="http://www.w3.org/1999/xlink" x="0px" y="0px" viewBox="0 0 1000 1000" enable-background="new 0 0 1000 1000" xml:space="preserve">
<metadata> Svg Vector Icons : http://www.onlinewebfonts.com/icon </metadata>
<g><g><g id="Layer_3_7_"><g><path d="M257.5,228.2c-18.8,0-33.9,15.4-33.8,34.2c0.1,18.5,15,33.4,33.6,33.5c19,0.1,34.1-14.8,34.1-33.7C291.4,243.4,276.3,228.2,257.5,228.2z"/><path d="M642.8,547c41.3-6.3,77.6-23.1,106.4-49.1c6.1-4.7,21.6-22.9,21.6-22.9c12.9-16.9-2.3-30.1-2.4-30.2c-6.4-5.4-19.6-9-30.2,2.5l-3.7,4.3l0,0c-55.2,65.2-147.1,65.8-213.6,37.5C464,465,406.2,410,414.6,328c1.2-11.8-7.4-22.3-19.2-23.5c-11.8-1.2-22.3,7.4-23.5,19.2c-8.9,88,41.7,166.5,132.2,205c32.6,13.9,68.1,21.1,102.7,21.1C618.9,549.7,631,548.8,642.8,547z"/><path d="M987.2,509.4c-4.3-7.5-12.6-11.7-21.2-10.7c-0.5,0.1-44.9,4.9-98.5-18.3c22.1-40.7,37.7-80,48.4-111.9c2.2-6.7,1-14-3.2-19.6c-4.2-5.6-10.9-8.9-17.9-8.6c-0.1,0-0.5,0-1,0c-8.1,0-82.3-1.8-186.8-63.6c-45.4-26.9-97.8-55.7-145.2-68.6c-9-12.7-17.6-25.4-25.8-37.8C501.5,117.9,428.5,65.1,343.4,65.1c-60.3,0-146.3,26.6-216.6,152.3c-14.4,6.1-47.9,20.4-63.9,27.1c-8,3.3-13.2,11.1-13.2,19.8v4.7c0,6.8,3.3,13.3,8.8,17.3c4.2,3,8.3,6.1,12.5,9.1c4.5,3.3,9,6.6,13.6,9.9c-3,1.9-6,3.8-9,5.7c-4.9,3.1-9.8,6.2-14.8,9.4c-7.3,4.6-11.1,13.2-9.7,21.7l0.8,4.6c1.1,6.8,5.4,12.6,11.6,15.6c4.8,2.4,9.6,4.8,14.4,7.1c13.3,6.6,26.9,13.4,40.3,20.2c10.9,21.3,48.1,90.3,106,160.2c40.4,48.8,82.4,87.8,125,115.9c2.9,1.9,5.7,3.7,8.6,5.5c-4.4-0.7-8.8-1.3-13.2-2c-170-26.5-305.1-70.3-306.4-70.8c-11.3-3.7-23.4,2.5-27,13.7c-3.7,11.3,2.5,23.4,13.7,27c1.1,0.4,88.8,28.8,212.1,54.1C181,758.5,110.5,782.6,109.2,783c-11.2,3.7-17.4,15.8-13.7,27c2.9,9.1,11.3,14.8,20.4,14.8c2.2,0,4.4-0.3,6.6-1.1c4-1.3,96.1-32.1,161.9-121.1c17.2,3.1,34.8,6.2,52.9,9c88.8,13.9,171.9,20.9,247.4,20.9c11.3,0,22.4-0.2,33.3-0.5c17-0.5,33.6-1.4,49.8-2.7c-17.5,15-36.7,32.8-54.7,52.3l-3.1,3.4c-34.4,38.1-63.8,82.5-68.1,126.2c-1.2,11.8,7.4,22.3,19.2,23.4c0.7,0.1,1.4,0.1,2.1,0.1c10.9,0,20.2-8.3,21.3-19.3c2.9-29.6,23.1-62.2,49.3-92.7c14.6,6.9,39.2,23.6,48.7,60.2c2.5,9.7,11.2,16.1,20.7,16.1c1.8,0,3.6-0.2,5.4-0.7c11.5-3,18.4-14.7,15.4-26.1c-11.4-44-38.1-68.5-59.9-81.7c31.8-31.1,65.8-57.2,86.9-71.7c50.6-9,96-22.5,135.7-40.4c10.8-4.9,15.6-17.6,10.7-28.4c-4.9-10.8-17.6-15.6-28.4-10.7c-57.1,25.7-128,41.6-210.3,47.5c40.5-18.2,77.8-43.8,111.9-76.7c10.9,2.3,22.7,3.5,35,3.5c23.3,0,48.6-4.1,73.8-12.1c44.6-14.2,83.2-39.2,105.9-68.5C990.8,526.3,991.5,516.9,987.2,509.4z M751.9,569l-5.3,5.4c-56,56-131.5,98.5-232.4,102.9c-207-0.5-359.2-309.6-360.7-312.7c-2-4.2-5.3-7.6-9.4-9.7c-10.6-5.5-21.3-10.9-31.9-16.2c7.2-4.6,14.5-9.2,21.8-13.7c6-3.7,9.8-10.2,10.1-17.3c0.3-7.1-2.9-13.9-8.6-18.1c-8.3-6.3-16.8-12.5-25.2-18.6c19.9-8.5,39.8-17,40.1-17.1c4.5-1.9,8.1-5.3,10.4-9.5C209,155.1,272.2,108,343.4,108c68.8,0,129.5,44.5,156.8,85.9c9.9,15,20.4,30.3,31.3,45.5c3,4.2,7.5,7.2,12.5,8.4c44.1,10.4,98.6,40.6,141.2,65.8c80.4,47.5,145.1,62.6,180.8,67.4c-11.2,29.6-25.9,62.4-45,95.3l-3.1,5.3C799.8,511.8,778.1,541.8,751.9,569z M807,570.9c14.3-17.3,27.1-35.3,38.6-53.3c25.3,11.6,49.3,17.8,69.3,21.1C883.4,558.3,842.4,570.6,807,570.9z"/></g></g></g><g></g><g></g><g></g><g></g><g></g><g></g><g></g><g></g><g></g><g></g><g></g><g></g><g></g><g></g><g></g></g>
</svg>