<?xml version="1.0" encoding="utf-8"?>
<!-- Svg Vector Icons : http://www.onlinewebfonts.com/icon -->
<!DOCTYPE svg PUBLIC "-//W3C//DTD SVG 1.1//EN" "http://www.w3.org/Graphics/SVG/1.1/DTD/svg11.dtd">
<svg version="1.1" xmlns="http://www.w3.org/2000/svg" xmlns:xlink="http://www.w3.org/1999/xlink" x="0px" y="0px" viewBox="0 0 1000 1000" enable-background="new 0 0 1000 1000" xml:space="preserve">
<metadata> Svg Vector Icons : http://www.onlinewebfonts.com/icon </metadata>
<g><g><g><path d="M772.1,273C772.1,273,772.1,273,772.1,273c1.2,2.2,2,4.7,2,7.4c0,8.7-7.1,15.8-15.8,15.8c-5,0-9.3-2.5-12.2-6.2c-1.6,3.5-2.5,7.4-2.5,11.5c0,15.7,12.7,28.4,28.4,28.4c15.7,0,28.4-12.7,28.4-28.4C800.5,285.7,787.8,273,772.1,273z"/><path d="M884.5,282.8C857.8,199.4,779.6,139,687.3,139c-105.8,0-192.9,79.4-205.4,181.9l-0.1,0.1c-85.7,144-414.3,67.8-471.8,36.4c100.2,224.1,243.6,333.5,384,363.6c47.6,25.3,101.7,39.9,159.4,39.9c6.1,0,12.1-0.6,18.1-0.9l-28.5,48.4l-60.3,19.8l4.9,14.9l58.5-19.1l27.5,28.3l11.2-10.9l-26.8-27.5l32.4-55c22.3-2.4,44-7,64.7-13.4l61.9,79.1l-52.5,19.5l5.4,14.7l59.5-22.1l54.8,24.6l6.4-14.3l-55.9-25l-64.2-82c129.8-47.6,222.7-171.5,223.8-317.4c1.6-5,3.1-9.7,4.3-14.1c2.3-8.2,91.3-96.9,91.3-96.9L884.5,282.8z M524.7,670.3c-69.1,0-234.5-104.3-234.5-128.6c0-24.3,165.4-121.5,234.5-121.5c69.1,0,125.1,56,125.1,125.1C649.7,614.3,593.7,670.3,524.7,670.3z M768.2,358.3c-31.4,0-56.9-25.5-56.9-56.9c0-31.4,25.5-56.8,56.9-56.8c31.4,0,56.9,25.5,56.9,56.8C825,332.8,799.6,358.3,768.2,358.3z"/></g></g><g></g><g></g><g></g><g></g><g></g><g></g><g></g><g></g><g></g><g></g><g></g><g></g><g></g><g></g><g></g></g>
</svg>