<?xml version="1.0" standalone="no"?>
<!DOCTYPE svg PUBLIC "-//W3C//DTD SVG 20010904//EN"
 "http://www.w3.org/TR/2001/REC-SVG-20010904/DTD/svg10.dtd">
<svg version="1.0" xmlns="http://www.w3.org/2000/svg"
 width="555.000000pt" height="587.000000pt" viewBox="0 0 555.000000 587.000000"
 preserveAspectRatio="xMidYMid meet">

<g transform="translate(0.000000,587.000000) scale(0.100000,-0.100000)"
fill="#ffb600" stroke="none">
<path d="M2693 5723 c-58 -20 -115 -87 -174 -205 -52 -103 -65 -173 -34 -184
25 -10 67 6 72 26 7 26 23 26 30 0 3 -11 12 -20 20 -20 8 0 28 -11 45 -25 l30
-25 -67 0 c-36 0 -82 7 -102 15 -58 24 -87 19 -138 -25 -64 -56 -80 -58 -226
-34 -27 4 -49 0 -87 -20 -86 -44 -115 -76 -157 -176 -28 -69 -51 -106 -93
-151 -93 -101 -180 -131 -260 -90 -76 39 -121 111 -142 226 -24 133 -46 150
-84 63 -27 -63 -53 -287 -36 -318 5 -10 10 -28 10 -40 0 -31 64 -151 97 -182
15 -15 53 -39 83 -55 47 -24 66 -28 131 -27 69 2 85 6 158 44 95 50 120 77
189 215 79 158 126 195 261 203 59 3 101 0 127 -9 21 -7 46 -14 54 -16 8 -1
30 -5 47 -9 48 -9 72 0 133 51 30 25 88 62 128 82 70 33 77 35 125 25 29 -6
53 -9 54 -9 0 1 3 48 5 104 1 57 6 103 11 103 4 0 7 -51 7 -112 l1 -113 56
-42 c31 -23 87 -54 126 -69 82 -31 76 -32 252 50 107 50 112 51 195 50 79 -2
89 -4 136 -35 83 -55 124 -139 124 -256 0 -44 3 -53 18 -53 10 0 27 7 38 15
27 20 36 18 32 -7 -2 -19 -10 -24 -46 -26 -41 -3 -45 -6 -63 -46 -10 -23 -20
-58 -21 -76 -3 -33 1 -37 100 -107 57 -40 142 -104 189 -142 85 -69 86 -70
137 -65 l51 4 -33 -15 c-28 -13 -31 -18 -22 -35 13 -25 47 -43 66 -36 11 4 14
30 14 123 -1 326 -84 559 -258 724 -69 66 -92 81 -92 59 0 -16 -56 -12 -70 5
-10 12 -7 17 14 26 32 15 24 27 -49 69 -72 41 -116 93 -162 192 -54 113 -89
151 -193 203 -123 62 -179 67 -285 26 l-80 -32 -15 22 c-47 66 -89 102 -154
134 -86 41 -161 51 -223 28z m822 -243 c-3 -5 -12 -10 -20 -10 -8 0 -17 5 -20
10 -4 6 5 10 20 10 15 0 24 -4 20 -10z m-755 -10 c0 -5 -4 -10 -10 -10 -5 0
-10 5 -10 10 0 6 5 10 10 10 6 0 10 -4 10 -10z m-14 -202 c4 -5 -4 -8 -17 -6
-12 1 -24 8 -26 15 -5 14 34 6 43 -9z m464 -18 c0 -5 -9 -10 -20 -10 -11 0
-20 5 -20 10 0 6 9 10 20 10 11 0 20 -4 20 -10z m-366 -45 c3 -10 -1 -15 -13
-15 -10 0 -21 7 -25 15 -3 10 1 15 13 15 10 0 21 -7 25 -15z m516 -55 c0 -5
-4 -10 -10 -10 -5 0 -10 5 -10 10 0 6 5 10 10 10 6 0 10 -4 10 -10z m335 -90
c8 0 15 -5 15 -11 0 -14 -109 -2 -128 14 -11 9 -11 13 3 24 15 10 24 9 56 -7
21 -11 45 -20 54 -20z m-1939 -410 c-14 -22 -26 -45 -26 -52 -1 -19 -39 -62
-48 -54 -4 4 1 13 11 20 9 7 17 20 17 29 0 9 8 31 18 49 10 18 25 44 32 58 12
22 15 23 18 7 2 -10 -8 -36 -22 -57z m2194 60 c0 -5 -7 -10 -15 -10 -8 0 -15
5 -15 10 0 6 7 10 15 10 8 0 15 -4 15 -10z m121 -16 c11 -14 9 -15 -16 -12
-16 1 -30 9 -33 16 -6 18 33 15 49 -4z m-175 -91 c-10 -10 -19 5 -10 18 6 11
8 11 12 0 2 -7 1 -15 -2 -18z m180 -103 c17 -7 36 -25 47 -46 l17 -35 -42 3
c-37 3 -43 6 -46 28 -2 14 -8 29 -13 35 -24 24 -8 31 37 15z m142 -102 c18
-18 15 -28 -8 -28 -10 0 -24 9 -30 20 -9 17 -8 20 8 20 10 0 23 -5 30 -12z"/>
<path d="M1711 5256 c-47 -19 -103 -48 -125 -63 -36 -25 -41 -34 -44 -71 -4
-52 21 -141 47 -173 l20 -24 53 55 c29 30 60 71 69 90 10 19 35 74 58 122 23
47 41 89 41 92 0 13 -39 4 -119 -28z"/>
<path d="M4204 5028 c39 -47 130 -186 155 -235 48 -96 105 -284 120 -398 11
-82 15 -326 6 -380 -11 -68 -33 -164 -53 -227 l-21 -68 20 -46 c73 -171 40
-394 -76 -523 -19 -21 -35 -43 -35 -49 0 -13 106 -109 140 -127 14 -7 88 -30
165 -50 283 -76 301 -81 610 -180 88 -27 126 -31 174 -14 30 11 31 13 31 67
-3 428 -90 800 -279 1187 -135 276 -319 533 -528 736 -198 193 -531 430 -429
307z m726 -1343 c0 -8 -4 -15 -10 -15 -5 0 -10 7 -10 15 0 8 5 15 10 15 6 0
10 -7 10 -15z m343 -125 c-5 -20 -39 -50 -55 -50 -14 0 -8 33 9 52 23 25 53
24 46 -2z m-1 -251 c-2 -8 -19 -55 -38 -105 -35 -92 -60 -126 -101 -139 -20
-5 -23 -3 -23 21 0 32 -26 64 -52 64 -14 0 -18 8 -18 34 0 40 20 59 102 99 95
45 136 54 130 26z m-604 -205 c2 -15 -5 -24 -26 -33 -23 -10 -28 -17 -24 -37
2 -14 17 -31 33 -40 16 -8 29 -19 29 -24 0 -6 11 -10 25 -10 16 0 25 -6 25
-16 0 -21 -40 -12 -80 18 -15 11 -33 18 -38 14 -5 -3 -13 10 -16 29 -4 19 -16
39 -26 45 -29 15 -24 32 8 29 35 -4 52 7 52 32 0 28 34 21 38 -7z m240 -10
c34 -10 26 -23 -11 -17 -29 4 -34 2 -47 -28 -8 -18 -21 -35 -27 -37 -18 -5
-16 25 2 32 8 3 15 17 15 31 0 26 19 32 68 19z m62 -54 c0 -13 46 -13 71 0 18
10 19 8 13 -32 -7 -40 -18 -57 -36 -58 -5 0 -8 9 -8 19 0 11 -13 31 -30 44
-31 27 -37 37 -20 37 6 0 10 -4 10 -10z m-162 -129 c3 -8 -1 -12 -9 -9 -7 2
-15 10 -17 17 -3 8 1 12 9 9 7 -2 15 -10 17 -17z m596 -23 c-7 -25 -88 -108
-104 -108 -6 0 -10 13 -10 29 0 23 8 34 38 52 20 13 41 29 45 36 4 7 15 13 23
13 11 0 13 -6 8 -22z"/>
<path d="M2710 4959 c-19 -12 -68 -55 -109 -95 -49 -49 -86 -77 -110 -84 -20
-5 -103 -10 -184 -10 -126 0 -153 -3 -186 -19 -49 -26 -104 -87 -140 -158 -30
-61 -112 -146 -192 -200 -56 -39 -107 -95 -115 -128 -4 -18 2 -34 25 -62 23
-28 28 -40 19 -50 -6 -7 -16 -13 -23 -13 -6 0 -19 -8 -27 -17 -37 -42 -51
-549 -23 -814 35 -335 123 -528 327 -725 149 -142 286 -212 563 -284 61 -15
126 -30 145 -33 l35 -4 -37 -1 c-46 -2 -48 -15 -17 -99 52 -140 163 -284 280
-362 32 -22 100 -53 151 -70 83 -28 106 -31 208 -31 193 0 331 57 479 196 75
71 178 213 196 272 5 19 3 22 -19 22 -24 0 -26 3 -26 44 0 24 -3 51 -6 60 -4
12 4 15 43 18 69 4 78 26 77 198 -1 123 -4 143 -30 218 -16 46 -34 84 -39 85
-5 1 -44 -41 -86 -94 -61 -75 -104 -116 -196 -184 -110 -82 -257 -165 -269
-152 -3 3 33 36 80 73 48 38 86 75 86 85 0 10 19 28 44 43 50 29 117 101 170
181 52 77 118 226 113 252 -2 13 2 24 9 27 19 7 17 66 -3 88 -9 10 -13 21 -9
25 4 5 12 0 17 -10 14 -25 29 -21 29 7 0 50 6 54 79 48 84 -6 157 16 199 59
40 41 72 129 79 214 5 63 3 77 -21 122 -14 28 -45 66 -68 85 -47 37 -134 122
-189 183 -50 57 -240 223 -310 270 -41 29 -58 46 -59 63 0 12 2 22 6 22 8 0
120 -76 189 -129 33 -25 114 -96 180 -158 125 -117 145 -125 145 -61 0 33 -64
107 -165 190 -33 28 -90 78 -127 113 -36 34 -109 91 -162 126 -73 49 -95 69
-96 87 0 12 4 22 10 22 24 0 367 -258 465 -351 63 -59 98 -83 109 -72 18 19
-2 54 -76 130 -129 132 -418 369 -425 348 -2 -6 -30 -9 -67 -7 -76 4 -100 -6
-125 -56 -10 -20 -32 -50 -47 -67 l-28 -30 -8 35 c-13 52 -13 51 2 102 l14 46
65 7 c102 10 98 7 99 81 1 51 -3 68 -17 82 -61 57 -81 72 -95 72 -9 0 -16 5
-16 10 0 6 -9 10 -19 10 -19 0 -71 52 -71 71 0 5 7 9 15 9 8 0 15 -7 15 -16 0
-9 28 -28 74 -50 41 -19 77 -38 81 -43 3 -6 20 -17 37 -26 25 -12 33 -13 40
-3 15 22 4 173 -15 202 -46 70 -167 86 -293 39 -59 -23 -73 -31 -68 -45 6 -19
-12 -26 -18 -7 -2 7 -17 7 -48 0 -25 -6 -61 -11 -81 -11 -43 0 -174 52 -206
82 -20 18 -38 22 -111 26 -76 3 -91 0 -122 -19z m-706 -550 c11 -58 7 -68 -34
-89 -22 -11 -63 -49 -95 -90 -31 -38 -58 -70 -62 -70 -3 0 -3 23 1 51 11 82
65 176 120 210 45 27 62 24 70 -12z m969 -68 c46 -16 98 -36 115 -45 36 -18
57 -44 26 -32 -32 13 -186 37 -241 37 -56 0 -59 3 -43 43 13 34 38 34 143 -3z
m473 -78 c-11 -11 -19 6 -11 24 8 17 8 17 12 0 3 -10 2 -21 -1 -24z m64 -78
c10 -12 10 -15 -4 -15 -9 0 -16 7 -16 15 0 8 2 15 4 15 2 0 9 -7 16 -15z m530
-5 c0 -5 -2 -10 -4 -10 -3 0 -8 5 -11 10 -3 6 -1 10 4 10 6 0 11 -4 11 -10z
m-430 -55 c19 -12 62 -49 96 -81 33 -33 96 -85 140 -116 43 -32 102 -77 129
-102 l50 -45 -40 6 c-26 4 -76 31 -147 78 -59 40 -118 75 -132 79 -20 5 -25
14 -31 54 -5 39 -12 52 -36 66 -16 9 -34 26 -39 37 -6 10 -19 19 -30 19 -11 0
-24 9 -31 21 -10 19 -9 20 13 14 12 -4 39 -17 58 -30z m-502 -79 c-10 -32 -8
-36 31 -75 46 -46 52 -66 19 -58 -70 17 -216 29 -303 24 l-100 -5 37 32 c55
47 172 90 320 115 3 0 1 -14 -4 -33z m-1140 -33 c41 -54 62 -124 62 -211 0
-68 -2 -76 -29 -103 -16 -16 -36 -29 -43 -29 -25 0 -79 66 -94 115 -20 67 -19
208 2 240 25 39 66 33 102 -12z m442 -167 c-6 -23 -18 -66 -26 -96 -9 -30 -22
-75 -31 -100 -33 -92 -30 -111 23 -171 l47 -53 -29 -13 c-71 -30 -115 -3 -174
108 l-31 59 39 48 c50 59 98 135 148 232 32 62 39 71 42 51 2 -14 -1 -43 -8
-65z m1290 50 c0 -19 -5 -38 -10 -41 -6 -4 -8 -26 -4 -55 6 -42 4 -49 -15 -59
-20 -11 -21 -10 -21 48 0 33 5 63 10 66 6 3 10 19 10 34 0 15 3 31 7 34 15 15
23 5 23 -27z m-174 -273 c4 -16 18 -39 32 -52 16 -16 21 -26 13 -29 -21 -7
-39 6 -43 30 -3 21 -7 23 -47 20 -29 -3 -47 1 -52 10 -13 19 -11 30 4 25 6 -2
26 2 42 9 42 18 44 18 51 -13z m270 -17 c8 -22 -14 -56 -36 -56 -23 0 -27 18
-5 26 8 4 15 15 15 25 0 22 18 25 26 5z m-1206 -16 c0 -5 -4 -10 -10 -10 -5 0
-10 5 -10 10 0 6 5 10 10 10 6 0 10 -4 10 -10z m90 0 c0 -5 -6 -10 -14 -10 -8
0 -18 5 -21 10 -3 6 3 10 14 10 12 0 21 -4 21 -10z m989 -98 c14 -17 33 -32
42 -32 10 0 21 -9 24 -20 3 -11 13 -20 20 -20 17 0 27 -16 31 -45 1 -12 18
-45 38 -72 39 -55 44 -73 21 -73 -8 0 -15 6 -15 13 0 17 -82 107 -97 107 -15
0 -43 45 -43 71 0 11 -15 36 -34 55 -25 25 -33 40 -28 56 4 16 7 18 11 7 3 -8
17 -29 30 -47z m-274 -42 c-3 -5 -10 -10 -16 -10 -5 0 -9 5 -9 10 0 6 7 10 16
10 8 0 12 -4 9 -10z m-282 -64 c35 -13 83 -34 107 -46 41 -21 45 -21 77 -6 30
14 33 14 33 0 0 -9 -9 -18 -21 -21 l-20 -6 21 -22 c20 -21 21 -27 10 -96 -6
-41 -16 -96 -24 -123 -11 -43 -14 -46 -19 -25 -4 13 -7 34 -7 46 0 12 -4 24
-8 27 -5 3 -51 -20 -102 -50 -145 -86 -256 -139 -370 -175 l-105 -34 -200 0
c-155 1 -219 5 -285 19 -157 34 -143 36 -139 -18 2 -25 1 -46 -3 -46 -11 0
-47 56 -73 115 -30 68 -31 119 -2 204 29 84 47 91 47 18 l0 -55 38 -4 c20 -3
39 -1 41 5 2 5 7 4 11 -3 4 -7 60 -16 138 -22 225 -20 401 18 657 141 66 32
140 70 165 86 l44 28 -42 36 c-38 33 -51 51 -37 51 2 0 33 -11 68 -24z m1075
-98 c19 -19 14 -26 -12 -21 -29 6 -44 33 -18 33 10 0 23 -5 30 -12z m-1868
-128 c0 -5 -4 -10 -9 -10 -5 0 -16 -3 -25 -6 -11 -4 -16 -1 -16 10 0 10 9 16
25 16 14 0 25 -4 25 -10z m1020 -400 c0 -5 -4 -10 -10 -10 -5 0 -10 5 -10 10
0 6 5 10 10 10 6 0 10 -4 10 -10z m-571 -66 c-16 -20 -95 -60 -134 -68 -32 -7
-102 16 -146 46 -23 17 -22 17 61 18 47 1 105 5 130 9 25 5 58 9 74 10 25 1
27 -1 15 -15z m699 -177 c2 -11 -3 -17 -14 -17 -10 0 -25 -7 -35 -16 -17 -16
-49 -13 -49 3 0 11 73 53 85 49 6 -1 11 -10 13 -19z"/>
<path d="M3045 3214 c-157 -87 -224 -117 -342 -153 -156 -47 -352 -64 -484
-42 -30 5 -82 12 -117 16 l-63 6 3 -42 3 -43 60 -18 c33 -10 121 -25 195 -35
246 -30 426 4 680 132 172 86 250 139 250 170 0 14 -47 75 -58 75 -4 0 -61
-30 -127 -66z"/>
<path d="M806 4609 c-129 -142 -322 -434 -420 -634 -79 -162 -108 -235 -155
-390 -60 -201 -66 -233 -52 -272 13 -35 10 -44 -21 -55 -17 -7 -38 -250 -38
-448 0 -240 21 -417 71 -615 59 -230 68 -255 94 -256 18 0 18 -1 4 -11 -14 -9
-15 -17 -7 -42 13 -39 28 -56 28 -32 0 12 5 16 16 12 9 -3 18 -6 20 -6 2 0 4
-13 4 -30 0 -16 -5 -30 -11 -30 -22 0 28 -136 55 -146 8 -3 41 14 75 39 33 25
82 53 108 62 27 9 61 23 76 31 16 8 37 14 48 14 25 0 25 4 -18 130 -26 77 -42
110 -55 113 -10 3 -18 14 -18 26 0 14 -6 21 -20 21 -11 0 -20 5 -20 10 0 6
-24 10 -54 10 -30 0 -58 5 -61 10 -3 6 -15 10 -26 10 -11 0 -19 7 -19 16 0 14
10 15 72 9 40 -4 78 -12 83 -19 12 -14 74 -41 80 -34 2 2 7 31 11 64 12 98 68
216 137 291 34 35 77 73 96 83 59 30 158 53 197 47 38 -6 39 -3 19 46 -15 36
18 15 78 -49 82 -87 127 -160 126 -204 0 -19 -20 -91 -45 -160 -49 -137 -53
-153 -61 -222 -4 -39 0 -56 24 -97 15 -28 33 -51 39 -51 6 0 31 13 55 30 24
16 49 30 55 30 7 0 14 9 17 20 4 15 14 20 40 20 19 0 54 7 78 16 24 8 74 21
112 27 l67 12 4 165 c3 115 10 197 25 270 12 58 21 110 21 116 0 6 -35 66 -79
132 -70 107 -130 235 -156 332 -3 14 -11 41 -16 60 -32 116 -50 287 -55 520
-6 228 -8 247 -27 277 l-22 32 -22 -21 c-13 -12 -26 -18 -30 -13 -5 4 -2 10 5
12 20 7 14 56 -15 119 -24 55 -26 72 -31 233 l-5 175 -37 48 c-21 26 -40 53
-42 59 -3 8 -30 14 -69 16 -94 5 -138 22 -191 70 -62 57 -93 57 -142 2z m440
-843 c-14 -19 -39 -44 -55 -56 -17 -11 -44 -43 -62 -70 -17 -27 -44 -54 -60
-60 -15 -7 -39 -30 -54 -51 -24 -37 -45 -44 -45 -15 0 8 31 42 69 77 37 35 75
71 84 79 9 8 43 44 76 79 63 67 94 78 47 17z m-346 -306 c0 -5 -11 -10 -25
-10 -14 0 -25 5 -25 10 0 6 11 10 25 10 14 0 25 -4 25 -10z m-80 -10 c0 -5 -6
-10 -14 -10 -8 0 -23 -3 -33 -6 -16 -5 -16 -4 1 10 22 18 46 21 46 6z m-230
-104 c0 -3 -4 -8 -10 -11 -5 -3 -10 -1 -10 4 0 6 5 11 10 11 6 0 10 -2 10 -4z
m-258 -91 c21 -3 43 -14 50 -24 8 -11 31 -20 61 -23 47 -6 50 -5 69 29 29 48
33 34 6 -21 -13 -27 -29 -46 -38 -46 -13 0 -16 -8 -13 -32 4 -33 3 -32 -60 35
-56 58 -69 67 -100 67 -42 0 -67 8 -67 22 0 5 12 7 28 4 15 -2 44 -7 64 -11z
m632 -141 c9 -24 7 -54 -4 -54 -5 0 -10 9 -10 19 0 11 -3 26 -6 35 -3 9 -2 16
4 16 5 0 13 -7 16 -16z m-424 -45 c0 -6 -7 -6 -20 1 -11 6 -20 15 -20 21 0 6
7 6 20 -1 11 -6 20 -15 20 -21z m35 -29 c3 -5 -1 -10 -9 -10 -9 0 -16 5 -16
10 0 6 4 10 9 10 6 0 13 -4 16 -10z m79 -156 c4 -10 1 -14 -6 -12 -15 5 -23
28 -10 28 5 0 13 -7 16 -16z m826 -10 c0 -14 -4 -23 -10 -19 -5 3 -10 15 -10
26 0 10 5 19 10 19 6 0 10 -12 10 -26z m-602 -51 c6 -19 -33 -16 -49 3 -11 14
-9 15 16 12 16 -1 30 -9 33 -15z m82 -38 c8 -9 8 -15 2 -15 -18 0 -42 12 -42
21 0 14 26 10 40 -6z m40 -45 c0 -5 -2 -10 -4 -10 -3 0 -8 5 -11 10 -3 6 -1
10 4 10 6 0 11 -4 11 -10z m45 -38 c6 -4 17 -16 25 -26 14 -18 14 -19 -6 -8
-24 13 -51 42 -38 42 5 0 14 -4 19 -8z m-655 -273 c0 -5 -7 -9 -15 -9 -8 0
-15 7 -15 15 0 9 6 12 15 9 8 -4 15 -10 15 -15z m1035 -48 c3 -5 1 -12 -5 -16
-5 -3 -10 1 -10 9 0 18 6 21 15 7z m195 -1 c0 -5 -4 -10 -10 -10 -5 0 -10 5
-10 10 0 6 5 10 10 10 6 0 10 -4 10 -10z m-1420 -30 c0 -5 -4 -10 -10 -10 -5
0 -10 5 -10 10 0 6 5 10 10 10 6 0 10 -4 10 -10z m370 -21 c0 -5 -9 -9 -20 -9
-11 0 -20 6 -20 14 0 9 7 12 20 9 11 -3 20 -9 20 -14z m794 -42 c-10 -28 -24
-19 -24 15 0 29 2 31 15 17 9 -9 13 -23 9 -32z m-1026 -279 c-3 -7 -21 -14
-41 -16 -28 -2 -37 1 -37 12 0 12 11 16 41 16 28 0 39 -4 37 -12z m156 -3 c-3
-8 -14 -17 -25 -20 -10 -4 -19 -13 -19 -21 0 -8 -7 -14 -15 -14 -21 0 -19 8
12 41 29 31 56 39 47 14z m126 -16 c0 -10 -4 -19 -10 -19 -5 0 -10 12 -10 26
0 14 4 23 10 19 6 -3 10 -15 10 -26z m-260 -17 c0 -13 -23 -32 -39 -32 -11 0
-10 4 4 20 19 21 35 26 35 12z m140 -2 c0 -5 -5 -10 -11 -10 -5 0 -7 5 -4 10
3 6 8 10 11 10 2 0 4 -4 4 -10z m800 -55 c0 -8 -4 -15 -10 -15 -5 0 -10 7 -10
15 0 8 5 15 10 15 6 0 10 -7 10 -15z m-852 -111 c25 -7 27 -21 10 -59 -9 -19
-19 -25 -44 -25 -37 0 -51 14 -34 35 6 8 9 23 5 35 -5 16 -2 20 17 20 13 0 33
-3 46 -6z"/>
<path d="M1450 4300 c0 -46 6 -95 14 -114 16 -38 68 -84 75 -65 2 6 -6 19 -17
28 -11 9 -24 34 -28 55 -6 36 -5 39 14 34 12 -4 26 0 33 8 10 12 8 21 -9 44
-12 16 -22 38 -22 49 0 19 -26 41 -49 41 -7 0 -11 -30 -11 -80z"/>
<path d="M4057 2982 c-37 -43 -39 -59 -12 -112 65 -129 70 -152 70 -338 0
-149 2 -171 15 -166 174 69 230 67 230 -9 0 -37 -4 -45 -35 -66 l-36 -24 -32
31 c-32 31 -87 45 -87 22 0 -5 -15 -10 -34 -10 -33 0 -34 -1 -81 -111 -192
-444 -620 -652 -1017 -495 -200 78 -346 231 -462 479 l-44 95 -43 4 c-24 3
-46 3 -48 1 -2 -1 1 -28 8 -58 15 -65 96 -235 156 -326 59 -87 207 -229 272
-260 36 -17 56 -33 65 -54 30 -71 140 -218 243 -324 108 -111 113 -115 241
-177 72 -35 138 -64 147 -64 10 0 28 22 45 58 44 87 156 374 192 492 47 156
50 161 121 204 35 22 80 51 99 65 l35 26 -35 5 c-32 5 -35 8 -32 35 5 46 17
49 51 16 18 -17 37 -31 44 -31 32 0 377 280 377 306 0 9 -13 32 -30 51 -33 37
-39 63 -15 63 8 0 15 -6 15 -14 0 -15 21 -26 51 -26 10 0 19 -4 19 -10 0 -19
20 -10 50 23 34 37 37 52 14 61 -15 6 -15 8 1 26 12 13 25 18 40 14 32 -8 75
91 75 175 0 55 -2 61 -20 61 -11 0 -38 -12 -60 -26 -36 -24 -40 -31 -40 -69 0
-40 -13 -64 -70 -132 -14 -17 -45 -16 -60 1 -17 21 7 67 75 142 48 54 73 107
75 157 0 14 -33 7 -67 -15 l-35 -21 7 31 c9 41 -1 41 -85 1 l-65 -30 -23 28
c-12 15 -40 58 -62 94 -45 74 -151 203 -173 212 -9 3 -22 -2 -30 -11z m415
-410 c-7 -2 -12 -10 -12 -18 0 -8 -10 -14 -25 -14 -14 0 -25 -5 -25 -12 0 -6
-3 -9 -6 -6 -10 11 16 47 44 62 19 10 28 11 31 3 2 -6 -1 -13 -7 -15z m-112
-62 c0 -5 -9 -10 -20 -10 -11 0 -20 5 -20 10 0 6 9 10 20 10 11 0 20 -4 20
-10z m-5 -270 c9 -15 -34 -52 -57 -48 -28 4 -33 22 -13 42 18 18 60 22 70 6z
m-221 -40 c31 -11 36 -50 8 -50 -23 0 -42 19 -42 42 0 21 1 21 34 8z m-824
-900 c0 -5 -7 -10 -15 -10 -8 0 -15 5 -15 10 0 6 7 10 15 10 8 0 15 -4 15 -10z"/>
<path d="M4740 2564 c0 -56 -6 -79 -40 -151 l-39 -84 27 -24 c22 -19 25 -26
14 -36 -10 -11 -18 -10 -41 4 -27 16 -31 16 -45 1 -39 -38 6 -79 75 -68 32 5
37 3 42 -17 9 -33 1 -39 -54 -39 -35 0 -58 6 -79 21 -36 27 -33 28 -180 -101
-104 -91 -128 -110 -330 -264 -64 -48 -106 -87 -108 -100 -6 -39 -54 -190
-108 -340 -62 -170 -192 -452 -292 -629 -89 -158 -89 -157 -52 -157 16 0 57
-14 90 -31 52 -26 60 -34 60 -58 0 -16 -7 -34 -15 -41 -20 -17 -19 -31 7 -85
25 -52 18 -53 154 7 478 206 937 601 1209 1038 77 124 185 334 185 360 0 11
-6 20 -12 20 -7 1 -31 16 -53 35 -28 25 -35 35 -22 35 9 0 17 -4 17 -10 0 -11
80 -13 96 -2 12 8 82 199 94 257 5 22 13 53 19 68 28 72 -1 107 -88 107 -60 0
-73 -7 -96 -54 -8 -16 -21 -22 -55 -24 -25 -2 -53 -10 -62 -19 -35 -31 -46
-11 -46 85 0 49 -5 98 -11 110 -6 11 -11 33 -11 49 0 34 -25 73 -47 73 -9 0
-13 6 -10 15 8 18 -32 47 -118 86 -35 16 -67 29 -70 29 -3 0 -5 -30 -5 -66z
m125 -154 c-8 -9 -15 -24 -15 -33 0 -33 -18 -16 -25 23 -5 28 -3 46 6 56 12
14 15 14 31 -6 17 -21 17 -25 3 -40z m59 -116 c9 -3 16 -17 16 -30 0 -20 -5
-24 -30 -24 -30 0 -37 11 -24 44 7 17 14 19 38 10z m-164 -54 c0 -5 -7 -10
-15 -10 -8 0 -15 5 -15 10 0 6 7 10 15 10 8 0 15 -4 15 -10z m93 -4 c24 -19
21 -38 -5 -34 -15 2 -24 11 -26 26 -4 25 5 27 31 8z m-11 -72 c3 -3 4 -14 1
-25 -7 -26 -53 -27 -53 -1 0 10 3 22 7 25 8 8 38 9 45 1z m401 -206 c-11 -24
-24 -55 -27 -70 -4 -16 -13 -28 -22 -28 -19 0 -30 28 -15 43 6 6 11 18 11 27
0 8 9 35 21 59 18 42 21 43 36 28 16 -15 15 -19 -4 -59z m-455 8 c3 -14 -2
-17 -24 -14 -32 4 -43 24 -17 31 27 7 38 2 41 -17z m200 -52 c29 -20 29 -54 1
-54 -20 0 -99 20 -108 27 -2 1 4 12 14 23 22 24 62 26 93 4z m-195 -84 c13 0
27 -3 30 -7 12 -12 -15 -33 -42 -33 -31 0 -51 16 -51 42 0 15 3 17 19 8 11 -5
30 -10 44 -10z m-523 -15 c0 -8 -4 -15 -9 -15 -13 0 -22 16 -14 24 11 11 23 6
23 -9z m-510 -910 c0 -33 -57 -30 -68 3 -2 8 9 12 32 12 26 0 36 -4 36 -15z
m3 -494 c22 -38 21 -47 -4 -54 -26 -7 -59 25 -59 58 0 37 40 34 63 -4z"/>
<path d="M1945 2475 c-3 -8 -8 -23 -11 -32 -26 -79 -54 -401 -40 -457 5 -22
12 -26 42 -26 22 0 37 -6 41 -15 9 -24 -5 -30 -37 -18 -17 6 -30 7 -30 3 0
-25 33 -143 55 -199 14 -36 23 -67 20 -70 -11 -11 -106 104 -132 160 l-28 60
-58 -5 c-96 -9 -293 -84 -360 -136 -15 -12 -27 -29 -27 -39 0 -21 82 -70 88
-53 2 7 13 12 25 12 21 -1 21 -1 3 -15 -18 -14 -17 -17 32 -66 70 -70 103
-122 150 -237 53 -132 62 -174 62 -304 0 -96 -4 -124 -30 -205 -16 -51 -30
-100 -30 -108 0 -45 173 -25 341 40 180 70 316 161 446 298 68 71 136 174 127
189 -3 4 -18 8 -33 8 -17 0 -38 11 -56 30 l-29 30 67 0 c50 0 67 4 67 14 0 31
-27 86 -77 158 -65 93 -68 109 -16 98 35 -8 85 -41 247 -159 94 -69 182 -119
192 -108 8 7 -3 45 -49 167 -21 57 -32 71 -88 113 -188 141 -305 312 -400 585
-31 91 -61 132 -97 132 -26 0 -194 70 -262 110 -109 62 -110 63 -115 45z m95
-360 c9 -10 32 -15 77 -15 55 0 67 -3 87 -25 20 -21 23 -33 19 -70 -7 -60 3
-94 31 -107 26 -11 25 -29 -2 -60 -18 -21 -62 -24 -62 -4 0 13 -29 26 -61 26
-32 0 -146 130 -133 151 4 8 9 7 15 -2 6 -10 9 -6 9 12 0 18 -8 29 -25 37 -32
15 -33 49 -2 62 31 12 33 12 47 -5z m90 -343 c19 -6 29 -10 21 -11 -8 -1 -31
-19 -51 -41 -25 -27 -45 -40 -63 -40 -24 0 -27 4 -27 36 0 25 7 42 23 55 22
19 29 19 97 1z m72 -356 c21 -9 48 -16 62 -16 16 0 27 -7 31 -19 3 -11 14 -23
24 -26 10 -3 23 -17 29 -31 12 -25 11 -25 -23 -18 -27 5 -36 3 -41 -10 -4 -11
-19 -16 -45 -16 -32 0 -46 7 -80 41 -28 28 -39 47 -36 60 3 10 1 22 -4 25 -5
3 -9 22 -9 41 l0 37 28 -27 c15 -14 44 -33 64 -41z m-92 -121 c15 -18 6 -45
-15 -45 -10 0 -15 10 -15 30 0 33 11 38 30 15z m-105 -415 c-3 -5 -10 -10 -16
-10 -5 0 -9 5 -9 10 0 6 7 10 16 10 8 0 12 -4 9 -10z"/>
<path d="M984 2436 c-51 -22 -122 -113 -151 -191 -38 -105 -39 -117 -9 -152
30 -36 32 -43 11 -43 -8 0 -15 5 -15 10 0 6 -5 10 -11 10 -33 0 29 -142 95
-219 26 -29 51 -62 57 -72 5 -11 20 -19 34 -19 14 0 25 -4 25 -10 0 -5 -6 -10
-14 -10 -11 0 -13 -10 -9 -40 5 -37 4 -40 -18 -40 -13 1 -48 9 -77 19 -43 15
-62 16 -93 8 -38 -9 -39 -10 -23 -28 21 -23 12 -25 -19 -4 -20 13 -30 13 -74
2 -134 -35 -278 -176 -259 -253 3 -12 2 -25 -3 -29 -12 -7 -4 -67 16 -122 15
-42 15 -43 -12 -79 -53 -69 -87 -215 -54 -226 9 -3 9 -9 0 -25 -6 -12 -11 -47
-11 -78 0 -67 23 -115 56 -115 12 0 25 -7 28 -15 3 -9 21 -22 41 -30 19 -9 41
-28 50 -44 l15 -30 -48 -6 c-26 -4 -50 -7 -54 -8 -14 -3 49 -121 78 -148 32
-29 64 -38 257 -70 184 -31 281 -12 327 64 21 33 26 102 11 126 -11 16 -31 10
-143 -46 -37 -18 -75 -33 -84 -33 -26 0 -216 60 -246 78 -16 9 -28 20 -28 24
0 15 85 8 158 -12 102 -28 134 -26 207 15 83 46 135 104 135 150 0 48 -19 85
-44 85 -12 0 -39 -12 -60 -26 -55 -38 -153 -74 -200 -74 -23 0 -83 17 -142 40
-56 22 -107 40 -113 40 -7 0 -14 -14 -18 -30 -12 -62 -37 -45 -27 18 6 38 8
40 48 44 22 3 46 2 51 -2 11 -8 74 -24 162 -42 47 -9 60 -7 122 17 129 49 194
114 189 190 -3 36 -6 40 -28 39 -14 -1 -58 -16 -99 -33 -40 -17 -89 -31 -110
-31 -39 0 -228 77 -271 110 l-25 20 45 0 c25 0 87 -13 138 -30 51 -17 105 -30
120 -30 16 0 70 21 122 48 107 53 140 89 140 154 0 74 -66 169 -127 184 -33 9
-71 -10 -83 -40 l-9 -24 -87 46 c-109 59 -120 77 -39 69 32 -3 63 -11 68 -16
17 -17 45 -13 67 9 17 17 28 19 78 14 44 -5 66 -14 99 -40 23 -19 52 -34 65
-34 21 0 24 -4 20 -34 -2 -18 3 -47 12 -64 9 -17 16 -53 16 -80 0 -40 -7 -60
-35 -101 -37 -56 -37 -77 1 -92 26 -9 34 -49 10 -49 -8 0 -16 -15 -19 -37 -3
-21 -9 -50 -12 -66 -6 -21 -4 -27 9 -27 9 0 22 11 28 25 9 20 18 25 48 25 20
0 41 5 47 11 8 8 14 5 22 -10 11 -19 9 -21 -23 -21 -29 0 -39 -6 -61 -37 -27
-40 -32 -82 -13 -101 9 -9 9 -12 0 -12 -7 0 -12 -11 -12 -25 0 -14 -7 -41 -14
-60 -14 -33 -14 -37 8 -61 21 -25 25 -26 58 -15 46 15 102 76 175 189 40 61
58 82 61 69 2 -10 -1 -31 -7 -45 -5 -15 -13 -51 -17 -81 l-6 -53 52 28 c83 45
97 84 44 119 -31 20 -31 35 2 35 14 0 23 4 19 10 -3 6 1 10 10 10 10 0 15 -7
13 -18 -2 -11 3 -17 16 -17 34 0 58 98 60 245 1 117 -1 130 -31 212 -41 110
-70 157 -147 236 -66 68 -108 98 -156 112 -40 11 -40 -5 0 -55 17 -21 30 -49
30 -62 0 -15 8 -27 23 -33 12 -5 16 -9 10 -9 -7 -1 -13 -8 -13 -17 0 -12 -6
-15 -21 -11 -29 8 -62 -13 -47 -30 8 -10 5 -13 -11 -13 -14 0 -21 6 -21 19 0
11 -4 23 -10 26 -5 3 -10 16 -10 28 1 20 2 21 14 5 14 -20 51 -24 61 -8 9 15
-34 84 -110 175 -96 114 -119 151 -144 227 -31 92 -25 196 18 338 18 58 35
126 38 152 5 44 4 47 -25 62 -37 19 -96 20 -138 2z m66 -556 c8 -5 12 -12 8
-15 -8 -8 -58 5 -58 16 0 12 31 11 50 -1z m-20 -260 c0 -5 -2 -10 -4 -10 -3 0
-8 5 -11 10 -3 6 -1 10 4 10 6 0 11 -4 11 -10z m255 -100 c3 -5 -1 -10 -9 -10
-9 0 -16 5 -16 10 0 6 4 10 9 10 6 0 13 -4 16 -10z m-55 -70 c0 -5 -4 -10 -10
-10 -5 0 -10 5 -10 10 0 6 5 10 10 10 6 0 10 -4 10 -10z m-550 -45 c0 -9 12
-18 30 -21 17 -4 30 -10 30 -14 0 -4 10 -12 23 -18 19 -10 14 -11 -28 -7 -103
9 -145 17 -139 26 3 5 16 9 28 9 15 0 26 7 29 20 6 23 27 27 27 5z m-135 -35
c8 -13 -5 -13 -25 0 -13 8 -13 10 2 10 9 0 20 -4 23 -10z m773 -157 c5 -18
-30 -16 -54 2 -18 14 -17 15 15 13 19 -2 36 -9 39 -15z m116 8 c3 -4 3 -11 0
-14 -8 -8 -34 3 -34 14 0 11 27 12 34 0z m-438 -76 c19 -14 19 -14 -2 -15 -12
0 -27 7 -34 15 -17 20 9 21 36 0z m267 -105 c32 -20 45 -34 41 -45 -8 -21 -34
-19 -34 3 0 9 -19 29 -43 44 -23 15 -35 28 -26 28 8 0 36 -13 62 -30z m157
-19 c0 -10 -24 -21 -46 -21 -8 0 -14 4 -14 9 0 8 10 12 53 20 4 0 7 -3 7 -8z
m20 -35 c0 -3 -4 -8 -10 -11 -5 -3 -10 -1 -10 4 0 6 5 11 10 11 6 0 10 -2 10
-4z m-76 -22 c9 -3 16 -10 16 -16 0 -14 -43 -5 -48 10 -4 13 7 15 32 6z m-744
-48 c0 -8 -4 -18 -10 -21 -5 -3 -10 3 -10 14 0 12 5 21 10 21 6 0 10 -6 10
-14z m839 -8 c11 -29 -7 -38 -26 -12 -17 23 -17 34 2 34 9 0 19 -10 24 -22z
m89 -16 c2 -7 -5 -12 -16 -12 -19 0 -32 18 -32 42 0 13 42 -14 48 -30z m82 3
c0 -8 -4 -15 -10 -15 -5 0 -10 7 -10 15 0 8 5 15 10 15 6 0 10 -7 10 -15z
m-1150 -61 c0 -9 -7 -14 -17 -12 -25 5 -28 28 -4 28 12 0 21 -6 21 -16z m812
-124 c18 -16 28 -30 22 -30 -6 0 -19 9 -29 20 -10 11 -24 20 -31 20 -7 0 -16
5 -19 10 -14 22 27 8 57 -20z"/>
<path d="M2787 1063 c-3 -21 -9 -48 -13 -60 -6 -23 -6 -23 37 -8 102 33 119
40 116 50 -5 14 -87 54 -113 54 -17 1 -23 -7 -27 -36z"/>
<path d="M3005 826 c-194 -71 -381 -164 -490 -243 -57 -41 -62 -49 -88 -122
-23 -62 -36 -85 -67 -110 -21 -17 -43 -31 -48 -31 -14 0 -22 -26 -22 -75 0
-33 4 -45 18 -49 9 -3 89 -12 176 -21 167 -16 381 -19 509 -9 l77 7 6 34 c3
18 17 42 30 52 32 25 30 54 -4 92 -33 37 -66 34 -76 -7 -4 -14 -18 -29 -31
-34 -14 -5 -25 -14 -25 -19 0 -25 14 -41 36 -41 14 0 24 -6 24 -14 0 -20 -18
-30 -33 -18 -7 6 -25 12 -42 14 -20 2 -31 9 -33 22 -4 21 28 86 43 86 15 1 55
36 55 49 0 7 -7 14 -15 17 -8 4 -15 15 -15 25 0 20 20 25 48 10 9 -4 38 -11
65 -14 42 -6 47 -5 47 13 0 21 35 50 62 50 20 0 24 20 8 36 -8 8 -6 15 5 24
22 18 19 36 -17 99 -24 42 -27 53 -12 42 46 -35 74 -66 74 -82 0 -10 12 -27
27 -39 26 -20 28 -21 41 -3 17 23 64 114 60 117 -2 1 -37 18 -78 38 -42 21
-102 60 -133 87 -32 28 -66 51 -75 51 -9 -1 -57 -16 -107 -34z m35 -121 c38
-20 40 -40 3 -30 -31 7 -53 23 -53 36 0 13 17 11 50 -6z m-170 -295 c0 -13 -5
-18 -15 -14 -16 7 -19 17 -8 27 12 13 23 7 23 -13z"/>
<path d="M3436 488 c-43 -69 -44 -73 -25 -86 10 -7 19 -20 19 -29 0 -13 -3
-13 -27 2 -26 17 -27 17 -38 0 -5 -10 -24 -37 -42 -61 -36 -48 -66 -104 -60
-110 2 -2 29 1 60 7 54 11 71 23 46 31 -8 3 -9 18 -4 46 7 42 7 42 43 36 37
-5 57 2 145 55 55 34 52 72 -11 134 -26 26 -51 47 -54 47 -4 0 -27 -32 -52
-72z"/>
<path d="M1650 414 c0 -5 35 -23 78 -40 l77 -32 8 24 c10 27 42 32 51 8 9 -22
8 -24 -9 -24 -8 0 -15 -6 -15 -13 0 -7 32 -22 73 -35 84 -26 87 -26 87 -8 0 8
7 16 15 20 8 3 15 15 15 26 0 11 4 20 9 20 5 0 11 13 13 30 l4 29 -60 -7 c-86
-9 -253 -9 -303 2 -25 5 -43 5 -43 0z"/>
</g>
</svg>
