<?xml version="1.0" encoding="UTF-8"?>
<!DOCTYPE svg PUBLIC "-//W3C//DTD SVG 1.1//EN" "http://www.w3.org/Graphics/SVG/1.1/DTD/svg11.dtd">
<svg xmlns="http://www.w3.org/2000/svg" version="1.1" width="555px" height="587px" style="shape-rendering:geometricPrecision; text-rendering:geometricPrecision; image-rendering:optimizeQuality; fill-rule:evenodd; clip-rule:evenodd" xmlns:xlink="http://www.w3.org/1999/xlink">
<g><path style="opacity:1" fill="#000000" d="M -0.5,-0.5 C 184.5,-0.5 369.5,-0.5 554.5,-0.5C 554.5,195.167 554.5,390.833 554.5,586.5C 369.5,586.5 184.5,586.5 -0.5,586.5C -0.5,390.833 -0.5,195.167 -0.5,-0.5 Z"/></g>
<g><path style="opacity:1" fill="#f8b62e" d="M 290.5,83.5 C 290.831,75.8045 290.497,68.1378 289.5,60.5C 288.733,67.1716 288.4,74.1716 288.5,81.5C 283.871,80.519 279.204,80.3523 274.5,81C 265.753,84.4262 258.087,89.4262 251.5,96C 248.167,96.6667 244.833,96.6667 241.5,96C 231.739,92.2077 221.739,91.541 211.5,94C 207.421,96.0751 203.921,98.9084 201,102.5C 196.667,110.5 192.333,118.5 188,126.5C 178.317,135.935 166.817,140.102 153.5,139C 141.333,134.833 133.167,126.667 129,114.5C 126.111,99.9738 127.611,85.9738 133.5,72.5C 135.167,71.1667 136.833,71.1667 138.5,72.5C 139.599,78.4962 140.766,84.4962 142,90.5C 148.262,106.548 159.095,110.714 174.5,103C 183.23,95.7143 189.063,86.5476 192,75.5C 195.998,69.1692 201.498,64.6692 208.5,62C 215.456,62.6312 222.456,62.9646 229.5,63C 234.007,61.4939 237.673,58.8272 240.5,55C 242.9,54.8142 245.234,54.3142 247.5,53.5C 247.509,38.634 253.176,26.134 264.5,16C 271.198,12.2881 278.198,11.6214 285.5,14C 295.427,17.2648 302.927,23.4314 308,32.5C 327.446,22.6882 344.446,26.0215 359,42.5C 362.333,49.1667 365.667,55.8333 369,62.5C 374.622,68.143 380.955,72.8097 388,76.5C 388.167,76.8333 388.333,77.1667 388.5,77.5C 386.955,78.4519 385.288,78.7852 383.5,78.5C 383.33,79.8221 383.663,80.9887 384.5,82C 386.473,82.4955 388.473,82.6621 390.5,82.5C 390.351,81.448 390.517,80.448 391,79.5C 412.407,96.6446 424.074,118.978 426,146.5C 426.667,153.833 426.667,161.167 426,168.5C 425.784,170.384 425.117,172.051 424,173.5C 419.88,172.217 417.38,169.551 416.5,165.5C 418.429,165.769 420.095,165.269 421.5,164C 418.608,163.544 415.941,163.877 413.5,165C 400.951,154.783 388.118,144.95 375,135.5C 374.883,130.175 376.216,125.175 379,120.5C 381.75,119.709 384.583,119.709 387.5,120.5C 389.332,115.488 388.332,114.655 384.5,118C 382.866,118.494 381.199,118.66 379.5,118.5C 380.638,92.9369 368.638,81.7702 343.5,85C 334.591,89.5405 325.424,93.3739 316,96.5C 310.639,95.2681 305.472,93.4348 300.5,91C 297.29,88.2833 293.956,85.7833 290.5,83.5 Z"/></g>
<g><path style="opacity:1" fill="#000000" d="M 347.5,37.5 C 348.675,37.281 349.675,37.6143 350.5,38.5C 348.948,39.7979 347.948,39.4646 347.5,37.5 Z"/></g>
<g><path style="opacity:1" fill="#140e04" d="M 256.5,48.5 C 258.104,49.287 258.771,50.6203 258.5,52.5C 261.593,53.104 264.259,54.604 266.5,57C 260.574,58.1102 254.908,57.4436 249.5,55C 252.753,53.7262 255.086,51.5595 256.5,48.5 Z"/></g>
<g><path style="opacity:1" fill="#f5b42d" d="M 180.5,56.5 C 181.675,56.281 182.675,56.6143 183.5,57.5C 178.865,65.1041 175.031,73.1041 172,81.5C 169.688,84.646 167.188,87.646 164.5,90.5C 163.084,92.1392 161.417,92.9725 159.5,93C 156.127,88.7512 153.961,83.9179 153,78.5C 152.333,75.8333 152.333,73.1667 153,70.5C 161.63,64.6023 170.797,59.9357 180.5,56.5 Z"/></g>
<g><path style="opacity:1" fill="#1a1304" d="M 269.5,59.5 C 271.089,58.3789 272.756,58.5456 274.5,60C 272.735,60.6397 271.068,60.4731 269.5,59.5 Z"/></g>
<g><path style="opacity:1" fill="#574014" d="M 316.5,60.5 C 317.978,60.238 319.311,60.5713 320.5,61.5C 319.833,61.8333 319.167,62.1667 318.5,62.5C 317.287,62.2528 316.62,61.5862 316.5,60.5 Z"/></g>
<g><path style="opacity:1" fill="#3b2c0d" d="M 290.5,83.5 C 289.5,83.1667 288.833,82.5 288.5,81.5C 288.4,74.1716 288.733,67.1716 289.5,60.5C 290.497,68.1378 290.831,75.8045 290.5,83.5 Z"/></g>
<g><path style="opacity:1" fill="#1c1508" d="M 280.5,64.5 C 281.5,64.5 282.5,64.5 283.5,64.5C 283.5,65.5 283.5,66.5 283.5,67.5C 282.5,67.5 281.5,67.5 280.5,67.5C 280.5,66.5 280.5,65.5 280.5,64.5 Z"/></g>
<g><path style="opacity:1" fill="#191206" d="M 357.5,77.5 C 362.112,77.9751 366.445,79.3084 370.5,81.5C 370.167,81.8333 369.833,82.1667 369.5,82.5C 365.889,81.7382 362.222,81.2382 358.5,81C 356.627,80.0471 356.294,78.8804 357.5,77.5 Z"/></g>
<g><path style="opacity:1" fill="#fab72e" d="M 417.5,81.5 C 417.735,80.9033 418.235,80.5699 419,80.5C 445.37,96.1967 468.036,116.197 487,140.5C 525.533,191.278 544.033,248.611 542.5,312.5C 537.994,314.384 533.327,314.884 528.5,314C 502.123,305.319 475.456,297.652 448.5,291C 441.241,287.054 435.408,281.887 431,275.5C 444.236,261.362 448.903,244.695 445,225.5C 443.487,221.619 441.987,217.786 440.5,214C 454.982,170.759 450.149,129.925 426,91.5C 423.302,87.9753 420.469,84.6419 417.5,81.5 Z"/></g>
<g><path style="opacity:1" fill="#fab82e" d="M 324.5,97.5 C 325.756,97.9038 326.923,98.5705 328,99.5C 329.718,98.9689 329.885,98.3023 328.5,97.5C 328.369,96.6236 328.702,95.9569 329.5,95.5C 335.734,92.4571 342.234,90.4571 349,89.5C 361.679,89.8448 367.845,96.3448 367.5,109C 367.691,112.709 367.025,116.209 365.5,119.5C 359.755,114.21 353.089,110.377 345.5,108C 344.213,106.59 343.046,105.09 342,103.5C 341.731,106.28 342.898,108.446 345.5,110C 347.833,111 350.167,112 352.5,113C 355.062,116.065 358.062,118.565 361.5,120.5C 362.804,125.719 362.804,130.886 361.5,136C 356.207,136.977 350.874,137.477 345.5,137.5C 345.312,141.064 344.312,144.397 342.5,147.5C 343.897,149.982 344.731,152.648 345,155.5C 349.538,151.182 353.372,146.349 356.5,141C 361.805,139.64 367.138,139.14 372.5,139.5C 390.381,152.212 406.881,166.545 422,182.5C 422.495,184.473 422.662,186.473 422.5,188.5C 415.038,184.574 408.371,179.408 402.5,173C 393.473,166.818 384.806,160.151 376.5,153C 372.633,150.302 368.633,147.802 364.5,145.5C 363.167,147.167 363.167,148.833 364.5,150.5C 371.638,155.138 378.638,159.972 385.5,165C 396.81,174.587 407.644,184.754 418,195.5C 420.057,199.016 419.391,202.016 416,204.5C 401.118,189.275 384.785,175.941 367,164.5C 366.202,166.259 366.369,167.926 367.5,169.5C 385.881,182.046 402.214,196.879 416.5,214C 429.63,221.095 434.463,231.929 431,246.5C 428.998,252.67 425.831,258.17 421.5,263C 413.471,266.574 405.138,267.408 396.5,265.5C 396.5,268.167 396.5,270.833 396.5,273.5C 394.088,273.756 392.421,272.756 391.5,270.5C 391.167,270.833 390.833,271.167 390.5,271.5C 391.524,272.852 392.524,274.185 393.5,275.5C 393.702,277.95 393.369,280.283 392.5,282.5C 388.106,299.44 379.439,313.94 366.5,326C 362.024,327.877 359.024,331.044 357.5,335.5C 352.14,338.849 347.14,342.682 342.5,347C 346.673,346.498 350.673,345.165 354.5,343C 361.167,338.333 367.833,333.667 374.5,329C 382.744,321.26 390.411,313.093 397.5,304.5C 406.009,320.319 407.509,336.652 402,353.5C 399.174,355.34 396.007,356.006 392.5,355.5C 392.5,359.5 392.5,363.5 392.5,367.5C 396.802,366.851 398.135,368.351 396.5,372C 384.767,395.066 366.434,410.066 341.5,417C 306.72,420.033 281.887,405.866 267,374.5C 265.107,369.993 263.941,365.327 263.5,360.5C 265.857,360.663 268.19,360.497 270.5,360C 246.544,357.185 224.544,349.185 204.5,336C 181.812,317.467 168.312,293.634 164,264.5C 160.667,235.499 160.667,206.499 164,177.5C 165.156,173.846 167.656,171.846 171.5,171.5C 170.483,167.662 168.816,164.162 166.5,161C 166.858,158.968 167.692,157.134 169,155.5C 177.63,148.539 185.963,141.205 194,133.5C 197.081,127.669 200.415,122.002 204,116.5C 207.577,113.627 211.411,111.127 215.5,109C 227.167,108.667 238.833,108.333 250.5,108C 256.469,103.033 262.135,97.6995 267.5,92C 273.502,87.7349 280.169,86.4016 287.5,88C 293.846,91.8398 300.513,95.1732 307.5,98C 313.498,98.5887 319.165,98.422 324.5,97.5 Z"/></g>
<g><path style="opacity:1" fill="#99701c" d="M 324.5,97.5 C 326.079,96.9194 327.412,96.9194 328.5,97.5C 329.885,98.3023 329.718,98.9689 328,99.5C 326.923,98.5705 325.756,97.9038 324.5,97.5 Z"/></g>
<g><path style="opacity:1" fill="#100b02" d="M 391.5,114.5 C 392.675,114.281 393.675,114.614 394.5,115.5C 392.948,116.798 391.948,116.465 391.5,114.5 Z"/></g>
<g><path style="opacity:1" fill="#191205" d="M 401.5,115.5 C 404.022,115.128 406.022,115.961 407.5,118C 405.833,118.667 404.167,118.667 402.5,118C 401.748,117.329 401.414,116.496 401.5,115.5 Z"/></g>
<g><path style="opacity:1" fill="#1a1204" d="M 173.5,123.5 C 172.662,123.158 172.328,122.492 172.5,121.5C 173.748,119.351 175.248,117.351 177,115.5C 176.69,118.461 175.524,121.128 173.5,123.5 Z"/></g>
<g><path style="opacity:1" fill="#fab82e" d="M 135.5,197.5 C 136.151,196.909 136.818,196.243 137.5,195.5C 138.815,197.316 140.315,198.983 142,200.5C 140.832,230.011 143.832,259.011 151,287.5C 153.805,294.914 156.805,302.247 160,309.5C 164.58,315.66 168.914,321.993 173,328.5C 172.111,339.18 170.777,349.847 169,360.5C 168.368,369.186 168.534,377.852 169.5,386.5C 158.969,387.682 148.636,389.682 138.5,392.5C 138.5,393.5 138.5,394.5 138.5,395.5C 134.292,397.03 130.292,399.03 126.5,401.5C 125.558,401.392 124.725,401.059 124,400.5C 119.111,393.093 118.111,385.093 121,376.5C 123.514,369.449 126.18,362.449 129,355.5C 130.63,343.425 126.297,334.092 116,327.5C 115.293,325.919 114.46,324.419 113.5,323C 112.365,322.251 111.365,322.417 110.5,323.5C 111.167,324.833 111.833,326.167 112.5,327.5C 89.079,327.382 73.9124,338.715 67,361.5C 66.4978,364.513 65.9978,367.513 65.5,370.5C 64.8333,372.5 64.1667,374.5 63.5,376.5C 62.0413,376.567 60.7079,376.234 59.5,375.5C 58.791,374.596 57.791,374.263 56.5,374.5C 56.5858,373.504 56.2524,372.671 55.5,372C 50.467,371.171 45.467,371.338 40.5,372.5C 42.8839,373.011 44.8839,374.011 46.5,375.5C 50.0606,376.23 53.7272,376.897 57.5,377.5C 58.8333,377.5 60.1667,377.5 61.5,377.5C 61.5,379.167 61.5,380.833 61.5,382.5C 62.8333,382.5 64.1667,382.5 65.5,382.5C 66.4054,389.055 68.2387,395.388 71,401.5C 71.7429,403.441 71.5762,405.274 70.5,407C 65.1546,408.667 59.8212,410.334 54.5,412C 49.5645,415.048 44.7312,418.215 40,421.5C 36.4409,418.738 34.1075,415.072 33,410.5C 33.8014,407.294 34.1347,403.961 34,400.5C 32.9887,399.663 31.8221,399.33 30.5,399.5C 30.6495,400.552 30.4828,401.552 30,402.5C 28.3107,400.24 27.144,397.74 26.5,395C 28.9316,393.913 28.5983,393.413 25.5,393.5C 18.9681,372.657 14.4681,351.324 12,329.5C 10.8072,306.076 11.6405,282.743 14.5,259.5C 15.8333,259.5 17.1667,259.5 18.5,259.5C 16.7706,255.33 16.2706,250.997 17,246.5C 28.5974,199.127 50.764,157.627 83.5,122C 85.8333,121.333 88.1667,121.333 90.5,122C 93.7747,126.62 98.108,129.62 103.5,131C 108.882,131.307 114.215,131.974 119.5,133C 121.948,137.115 124.781,140.948 128,144.5C 128.333,154.167 128.667,163.833 129,173.5C 130.904,181.621 133.071,189.621 135.5,197.5 Z"/></g>
<g><path style="opacity:1" fill="#1b1404" d="M 388.5,123.5 C 389.776,124.386 389.776,125.386 388.5,126.5C 387.438,125.575 387.438,124.575 388.5,123.5 Z"/></g>
<g><path style="opacity:1" fill="#664b17" d="M 172.5,121.5 C 172.328,122.492 172.662,123.158 173.5,123.5C 173.231,126.015 172.231,128.015 170.5,129.5C 170.294,126.505 170.96,123.838 172.5,121.5 Z"/></g>
<g><path style="opacity:1" fill="#281e0c" d="M 170.5,129.5 C 169.878,130.627 169.045,131.627 168,132.5C 167.481,130.511 168.314,129.511 170.5,129.5 Z"/></g>
<g><path style="opacity:1" fill="#1a1307" d="M 412.5,142.5 C 410.393,143.468 408.059,143.802 405.5,143.5C 404.6,140.812 403.767,138.146 403,135.5C 405.382,136.554 407.882,137.221 410.5,137.5C 410.402,139.553 411.069,141.22 412.5,142.5 Z"/></g>
<g><path style="opacity:1" fill="#0c0702" d="M 195.5,142.5 C 196.833,142.5 198.167,142.5 199.5,142.5C 199.823,146.226 199.489,149.893 198.5,153.5C 196.833,154.333 195.167,155.167 193.5,156C 189.215,160.74 185.048,165.573 181,170.5C 180.846,158.472 185.679,149.139 195.5,142.5 Z"/></g>
<g><path style="opacity:1" fill="#846118" d="M 412.5,142.5 C 413.043,142.56 413.376,142.893 413.5,143.5C 410.691,144.8 408.024,144.8 405.5,143.5C 408.059,143.802 410.393,143.468 412.5,142.5 Z"/></g>
<g><path style="opacity:1" fill="#0b0701" d="M 417.5,145.5 C 422.639,146.941 422.639,147.941 417.5,148.5C 417.5,147.5 417.5,146.5 417.5,145.5 Z"/></g>
<g><path style="opacity:1" fill="#765716" d="M 146.5,148.5 C 144.564,152.715 143.897,157.381 144.5,162.5C 143.513,157.695 143.179,152.695 143.5,147.5C 144.791,147.263 145.791,147.596 146.5,148.5 Z"/></g>
<g><path style="opacity:1" fill="#eaac2b" d="M 146.5,148.5 C 147.708,149.234 149.041,149.567 150.5,149.5C 150.338,151.527 150.505,153.527 151,155.5C 156.23,160.25 155.396,163.25 148.5,164.5C 149.189,166.444 149.689,168.444 150,170.5C 151.972,171.305 153.472,172.639 154.5,174.5C 152.114,175.529 150.114,174.863 148.5,172.5C 146.049,169.6 144.715,166.266 144.5,162.5C 143.897,157.381 144.564,152.715 146.5,148.5 Z"/></g>
<g><path style="opacity:1" fill="#120d04" d="M 289.5,156.5 C 286.841,156.083 284.508,155.083 282.5,153.5C 282.491,150.864 283.825,149.531 286.5,149.5C 295.195,151.786 303.528,154.953 311.5,159C 307.635,159.301 303.969,158.634 300.5,157C 296.848,156.501 293.182,156.335 289.5,156.5 Z"/></g>
<g><path style="opacity:1" fill="#7c5b17" d="M 282.5,153.5 C 284.508,155.083 286.841,156.083 289.5,156.5C 286.833,156.5 284.167,156.5 281.5,156.5C 281.263,155.209 281.596,154.209 282.5,153.5 Z"/></g>
<g><path style="opacity:1" fill="#261c0a" d="M 343.5,156.5 C 344.782,157.708 344.782,159.042 343.5,160.5C 342.374,159.192 342.374,157.858 343.5,156.5 Z"/></g>
<g><path style="opacity:1" fill="#140e04" d="M 352.5,171.5 C 352.56,170.957 352.893,170.624 353.5,170.5C 362.129,174.621 369.463,180.455 375.5,188C 384.401,193.566 392.735,199.899 400.5,207C 398.5,207.667 396.5,207.667 394.5,207C 388.5,203 382.5,199 376.5,195C 373.691,193.259 370.691,192.092 367.5,191.5C 367.849,187.936 367.183,184.602 365.5,181.5C 361.618,177.248 357.285,173.915 352.5,171.5 Z"/></g>
<g><path style="opacity:1" fill="#100b03" d="M 303.5,179.5 C 305.833,179.5 308.167,179.5 310.5,179.5C 309.833,181.819 309.666,184.153 310,186.5C 313.029,188.029 315.195,190.362 316.5,193.5C 315.167,193.833 313.833,194.167 312.5,194.5C 300.182,192.588 287.849,192.088 275.5,193C 278.812,189.341 282.812,186.674 287.5,185C 292.958,183.147 298.291,181.313 303.5,179.5 Z"/></g>
<g><path style="opacity:1" fill="#050301" d="M 188.5,181.5 C 191.505,181.253 194.005,182.253 196,184.5C 198.613,187.324 200.279,190.658 201,194.5C 201.667,201.5 201.667,208.5 201,215.5C 199.587,217.414 197.753,218.747 195.5,219.5C 189.445,215.927 185.945,210.594 185,203.5C 184.333,197.833 184.333,192.167 185,186.5C 185.697,184.416 186.864,182.749 188.5,181.5 Z"/></g>
<g><path style="opacity:1" fill="#0e0902" d="M 240.5,193.5 C 241.622,195.288 241.789,197.288 241,199.5C 238.168,209.656 235.335,219.823 232.5,230C 232.542,231.967 233.042,233.801 234,235.5C 243.645,242.832 242.478,246.332 230.5,246C 225.388,240.948 221.388,235.115 218.5,228.5C 227.606,217.957 234.939,206.29 240.5,193.5 Z"/></g>
<g><path style="opacity:1" fill="#33260e" d="M 135.5,197.5 C 134.998,199.085 133.998,199.585 132.5,199C 133.244,197.961 134.244,197.461 135.5,197.5 Z"/></g>
<g><path style="opacity:1" fill="#1b1406" d="M 367.5,193.5 C 368.725,194.152 369.392,195.319 369.5,197C 369.307,199.504 368.641,201.837 367.5,204C 368.593,206.734 368.593,209.4 367.5,212C 366.552,212.483 365.552,212.649 364.5,212.5C 364.009,205.816 365.009,199.482 367.5,193.5 Z"/></g>
<g><path style="opacity:1" fill="#2f230a" d="M 490.5,216.5 C 492.332,217.14 492.665,218.14 491.5,219.5C 490.614,218.675 490.281,217.675 490.5,216.5 Z"/></g>
<g><path style="opacity:1" fill="#1b1406" d="M 123.5,206.5 C 124.376,206.369 125.043,206.702 125.5,207.5C 122.857,211.977 119.357,215.643 115,218.5C 112.219,224.403 107.886,228.737 102,231.5C 101.163,233.844 99.8294,235.844 98,237.5C 96.6346,236.407 96.3013,235.074 97,233.5C 101.741,228.088 107.074,223.421 113,219.5C 116.713,215.292 120.213,210.959 123.5,206.5 Z"/></g>
<g><path style="opacity:1" fill="#1c1507" d="M 352.5,227.5 C 349.284,227.016 345.951,227.016 342.5,227.5C 342.5,226.5 342.5,225.5 342.5,224.5C 345.271,222.914 348.271,222.414 351.5,223C 352.38,224.356 352.714,225.856 352.5,227.5 Z"/></g>
<g><path style="opacity:1" fill="#3c2d0e" d="M 256.5,226.5 C 258.337,226.639 258.67,227.306 257.5,228.5C 256.702,228.043 256.369,227.376 256.5,226.5 Z"/></g>
<g><path style="opacity:1" fill="#382a0d" d="M 264.5,226.5 C 265.675,226.281 266.675,226.614 267.5,227.5C 265.948,228.798 264.948,228.465 264.5,226.5 Z"/></g>
<g><path style="opacity:1" fill="#291f0b" d="M 376.5,224.5 C 378.252,224.418 379.252,225.251 379.5,227C 378.705,230.558 376.705,231.725 373.5,230.5C 375.559,229.049 376.559,227.049 376.5,224.5 Z"/></g>
<g><path style="opacity:1" fill="#2f230e" d="M 352.5,227.5 C 354.296,228.793 355.963,230.293 357.5,232C 353.508,233.177 351.842,231.677 352.5,227.5 Z"/></g>
<g><path style="opacity:1" fill="#201809" d="M 523.5,228.5 C 524.5,228.5 525.5,228.5 526.5,228.5C 526.548,232.075 524.881,234.409 521.5,235.5C 520.386,234.277 520.219,232.944 521,231.5C 522.045,230.627 522.878,229.627 523.5,228.5 Z"/></g>
<g><path style="opacity:1" fill="#221908" d="M 366.5,238.5 C 362.852,237.5 361.686,235.166 363,231.5C 363.989,233.97 365.155,236.303 366.5,238.5 Z"/></g>
<g><path style="opacity:1" fill="#3c2d0f" d="M 84.5,239.5 C 86.288,239.215 87.9547,239.548 89.5,240.5C 88.6667,240.833 87.8333,241.167 87,241.5C 85.6244,241.316 84.7911,240.649 84.5,239.5 Z"/></g>
<g><path style="opacity:1" fill="#130d03" d="M 366.5,238.5 C 368.142,240.081 370.142,240.747 372.5,240.5C 372.351,241.552 372.517,242.552 373,243.5C 374.955,244.453 376.622,245.787 378,247.5C 378.492,248.549 378.326,249.549 377.5,250.5C 388.271,266.397 387.604,267.064 375.5,252.5C 372.663,251.669 370.496,250.002 369,247.5C 368.799,244.247 367.966,241.247 366.5,238.5 Z"/></g>
<g><path style="opacity:1" fill="#2d220d" d="M 78.5,240.5 C 79.675,240.281 80.675,240.614 81.5,241.5C 79.9255,242.631 78.2588,242.798 76.5,242C 77.4158,241.722 78.0825,241.222 78.5,240.5 Z"/></g>
<g><path style="opacity:1" fill="#5e4514" d="M 336.5,240.5 C 339.797,240.329 340.131,240.995 337.5,242.5C 336.702,242.043 336.369,241.376 336.5,240.5 Z"/></g>
<g><path style="opacity:1" fill="#0f0a02" d="M 200.5,267.5 C 201.167,270.5 201.833,273.5 202.5,276.5C 231.844,283.988 260.844,280.821 289.5,267C 296.5,263.167 303.5,259.333 310.5,255.5C 311.521,254.998 311.688,254.332 311,253.5C 308.961,251.126 306.628,249.126 304,247.5C 303.312,246.668 303.479,246.002 304.5,245.5C 311.724,248.362 318.891,251.362 326,254.5C 328.139,253.764 330.139,252.764 332,251.5C 332.795,254.383 331.629,255.883 328.5,256C 330.677,257.497 332.01,259.497 332.5,262C 331.454,269.591 329.954,277.091 328,284.5C 326.801,281.274 326.301,277.941 326.5,274.5C 324.692,274.491 323.025,274.991 321.5,276C 295.274,295.224 265.941,303.557 233.5,301C 224.092,299.818 214.759,298.318 205.5,296.5C 205.665,299.518 205.498,302.518 205,305.5C 194.314,293.817 192.814,281.15 200.5,267.5 Z"/></g>
<g><path style="opacity:1" fill="#080501" d="M 522.5,254.5 C 523.833,254.5 525.167,254.5 526.5,254.5C 524.348,260.812 522.181,267.145 520,273.5C 518.236,277.095 515.402,279.428 511.5,280.5C 512.363,274.628 509.697,271.628 503.5,271.5C 503.187,268.753 503.52,266.086 504.5,263.5C 510.37,259.898 516.37,256.898 522.5,254.5 Z"/></g>
<g><path style="opacity:1" fill="#161004" d="M 414.5,256.5 C 416.681,256.284 418.347,257.117 419.5,259C 416.738,260.077 415.072,259.244 414.5,256.5 Z"/></g>
<g><path style="opacity:1" fill="#f7b62e" d="M 314.5,258.5 C 318.783,259.449 321.449,262.116 322.5,266.5C 322.471,268.029 321.804,269.196 320.5,270C 304.499,281 287.165,289.333 268.5,295C 246.224,299.152 224.391,297.652 203,290.5C 202.503,287.854 202.336,285.187 202.5,282.5C 233.397,288.929 263.064,285.429 291.5,272C 299.23,267.474 306.896,262.974 314.5,258.5 Z"/></g>
<g><path style="opacity:1" fill="#171004" d="M 52.5,259.5 C 53.0431,259.56 53.3764,259.893 53.5,260.5C 52.2377,265.059 49.571,268.392 45.5,270.5C 46.6446,271.891 46.6446,273.224 45.5,274.5C 41.4964,270.996 37.8297,267.163 34.5,263C 30.9716,262.911 27.6382,262.244 24.5,261C 30.1087,259.458 34.7754,260.792 38.5,265C 45.5781,268.795 50.2448,266.962 52.5,259.5 Z"/></g>
<g><path style="opacity:1" fill="#755616" d="M 200.5,267.5 C 200.56,266.957 200.893,266.624 201.5,266.5C 202.487,269.768 202.82,273.102 202.5,276.5C 201.833,273.5 201.167,270.5 200.5,267.5 Z"/></g>
<g><path style="opacity:1" fill="#100b02" d="M 226.5,269.5 C 228.288,269.215 229.955,269.548 231.5,270.5C 230.667,270.833 229.833,271.167 229,271.5C 227.624,271.316 226.791,270.649 226.5,269.5 Z"/></g>
<g><path style="opacity:1" fill="#2a1f0d" d="M 93.5,273.5 C 96.4283,275.124 97.095,277.457 95.5,280.5C 94.5793,278.223 93.9126,275.89 93.5,273.5 Z"/></g>
<g><path style="opacity:1" fill="#694d15" d="M 393.5,275.5 C 394.152,276.449 394.486,277.615 394.5,279C 394.392,280.681 393.725,281.848 392.5,282.5C 393.369,280.283 393.702,277.95 393.5,275.5 Z"/></g>
<g><path style="opacity:1" fill="#2a200c" d="M 50.5,277.5 C 52.6859,277.511 53.5192,278.511 53,280.5C 51.583,279.922 50.7496,278.922 50.5,277.5 Z"/></g>
<g><path style="opacity:1" fill="#1c1507" d="M 483.5,276.5 C 492.136,276.884 492.803,277.717 485.5,279C 484.862,281.78 483.362,283.947 481,285.5C 482.82,283.024 483.654,280.024 483.5,276.5 Z"/></g>
<g><path style="opacity:1" fill="#1e1607" d="M 462.5,273.5 C 464.635,273.147 465.968,273.98 466.5,276C 464.958,278.442 462.958,280.442 460.5,282C 461.798,285.627 464.131,288.294 467.5,290C 469.134,290.494 470.801,290.66 472.5,290.5C 472.5,291.5 472.5,292.5 472.5,293.5C 468.026,292.092 463.693,290.425 459.5,288.5C 459.326,286.139 458.993,283.806 458.5,281.5C 456.654,281.778 455.32,281.111 454.5,279.5C 456.353,278.24 458.186,278.24 460,279.5C 462.039,278.022 462.872,276.022 462.5,273.5 Z"/></g>
<g><path style="opacity:1" fill="#4c3811" d="M 54.5,281.5 C 56.9828,281.73 57.4828,282.397 56,283.5C 54.9701,283.164 54.4701,282.497 54.5,281.5 Z"/></g>
<g><path style="opacity:1" fill="#5b4316" d="M 496.5,283.5 C 494.663,283.361 494.33,282.694 495.5,281.5C 496.298,281.957 496.631,282.624 496.5,283.5 Z"/></g>
<g><path style="opacity:1" fill="#120c03" d="M 496.5,283.5 C 499.627,283.124 502.627,283.124 505.5,283.5C 504.054,285.618 503.387,287.951 503.5,290.5C 502.5,290.5 501.5,290.5 500.5,290.5C 500.039,287.697 498.705,285.363 496.5,283.5 Z"/></g>
<g><path style="opacity:1" fill="#f8b62e" d="M 405.5,286.5 C 409.642,288.12 413.142,290.786 416,294.5C 421.957,302.913 427.79,311.413 433.5,320C 438.424,317.391 443.757,315.558 449.5,314.5C 447.38,321.356 448.713,322.189 453.5,317C 455.134,316.506 456.801,316.34 458.5,316.5C 457.955,319.813 457.455,323.146 457,326.5C 452.288,331.543 447.955,336.877 444,342.5C 442.614,348.12 444.448,349.62 449.5,347C 451.667,344.167 453.833,341.333 456,338.5C 456.212,335.242 456.712,332.076 457.5,329C 460.756,325.54 464.756,324.04 469.5,324.5C 469.829,332.68 467.996,340.347 464,347.5C 462.542,348.747 461.042,348.747 459.5,347.5C 458.522,347.977 457.689,348.643 457,349.5C 457.333,351.5 457.667,353.5 458,355.5C 455.978,357.522 453.978,359.522 452,361.5C 449.405,359.854 446.572,359.187 443.5,359.5C 443.5,358.167 443.5,356.833 443.5,355.5C 442.5,355.5 441.5,355.5 440.5,355.5C 440.491,357.308 440.991,358.975 442,360.5C 444.018,362.35 445.851,364.35 447.5,366.5C 436.21,377.958 423.877,388.125 410.5,397C 407.021,397.566 404.355,396.233 402.5,393C 401.552,392.517 400.552,392.351 399.5,392.5C 399.5,394.833 399.5,397.167 399.5,399.5C 401.604,399.201 403.604,399.534 405.5,400.5C 398.362,405.145 391.529,410.145 385,415.5C 378.324,439.198 369.491,462.032 358.5,484C 340.621,480.47 325.787,471.636 314,457.5C 305.582,447.662 298.416,436.995 292.5,425.5C 274.835,416.668 261.669,403.335 253,385.5C 248.844,377.693 245.678,369.527 243.5,361C 243.833,359.833 244.167,358.667 244.5,357.5C 247.109,358.23 249.776,358.73 252.5,359C 256.051,365.27 259.218,371.77 262,378.5C 285.856,417.509 319.356,429.342 362.5,414C 385.508,400.67 401.174,381.337 409.5,356C 413.819,354.854 418.152,354.187 422.5,354C 424.603,355.69 426.603,357.524 428.5,359.5C 430.937,358.197 433.104,356.53 435,354.5C 436.476,349.651 434.976,346.318 430.5,344.5C 423.908,345.626 417.575,347.626 411.5,350.5C 411.994,338.52 411.494,326.52 410,314.5C 408.112,307.56 405.279,301.06 401.5,295C 402.711,292.08 404.044,289.247 405.5,286.5 Z"/></g>
<g><path style="opacity:1" fill="#5a4212" d="M 477.5,294.5 C 478.743,293.263 479.743,293.596 480.5,295.5C 480.167,295.833 479.833,296.167 479.5,296.5C 478.818,295.757 478.151,295.091 477.5,294.5 Z"/></g>
<g><path style="opacity:1" fill="#140e03" d="M 537.5,295.5 C 538.649,295.791 539.316,296.624 539.5,298C 539.333,298.833 539.167,299.667 539,300.5C 535.662,303.008 532.495,305.675 529.5,308.5C 528.359,306.579 528.192,304.579 529,302.5C 532.814,301.2 535.648,298.866 537.5,295.5 Z"/></g>
<g><path style="opacity:1" fill="#6b4f16" d="M 145.5,296.5 C 146.649,296.791 147.316,297.624 147.5,299C 147.333,299.833 147.167,300.667 147,301.5C 145.731,300.095 145.231,298.429 145.5,296.5 Z"/></g>
<g><path style="opacity:1" fill="#493610" d="M 62.5,296.5 C 63.6266,297.122 64.6266,297.955 65.5,299C 63.5106,299.519 62.5106,298.686 62.5,296.5 Z"/></g>
<g><path style="opacity:1" fill="#221907" d="M 81.5,303.5 C 82.0968,302.861 82.9302,302.528 84,302.5C 86.7374,302.376 87.5707,303.376 86.5,305.5C 84.8045,304.826 83.1379,304.159 81.5,303.5 Z"/></g>
<g><path style="opacity:1" fill="#5d4515" d="M 91.5,306.5 C 93.6807,306.284 95.3474,307.117 96.5,309C 93.9814,309.741 92.3148,308.908 91.5,306.5 Z"/></g>
<g><path style="opacity:1" fill="#3c2d0e" d="M 331.5,309.5 C 333.337,309.639 333.67,310.306 332.5,311.5C 331.702,311.043 331.369,310.376 331.5,309.5 Z"/></g>
<g><path style="opacity:1" fill="#3e2e0e" d="M 97.5,312.5 C 98.0768,311.227 98.7435,311.227 99.5,312.5C 99.0302,313.463 98.3635,313.463 97.5,312.5 Z"/></g>
<g><path style="opacity:1" fill="#37290f" d="M 102.5,315.5 C 103.962,316.458 105.295,317.624 106.5,319C 104.159,319.168 102.826,318.001 102.5,315.5 Z"/></g>
<g><path style="opacity:1" fill="#191205" d="M 271.5,315.5 C 273.527,315.338 275.527,315.505 277.5,316C 268.003,325.258 258.003,326.092 247.5,318.5C 255.697,317.89 263.697,316.89 271.5,315.5 Z"/></g>
<g><path style="opacity:1" fill="#fab82e" d="M 520.5,402.5 C 517.756,402.752 515.256,402.085 513,400.5C 512.5,400.667 512,400.833 511.5,401C 512.471,402.481 513.804,403.315 515.5,403.5C 516.98,406.307 519.313,407.973 522.5,408.5C 498.117,463.722 459.783,506.555 407.5,537C 395.192,543.654 382.526,549.488 369.5,554.5C 367.304,551.44 365.637,548.107 364.5,544.5C 364.703,542.792 365.536,541.459 367,540.5C 367.808,538.421 367.641,536.421 366.5,534.5C 361.111,531.3 355.445,528.966 349.5,527.5C 370.87,491.755 387.037,453.755 398,413.5C 417.701,399.472 436.534,384.305 454.5,368C 457.522,367.836 460.189,368.836 462.5,371C 466.091,371.789 469.591,371.622 473,370.5C 473.492,369.451 473.326,368.451 472.5,367.5C 467.53,367.102 462.863,365.768 458.5,363.5C 460.006,356.942 463.173,355.942 468,360.5C 468.925,359.953 469.758,359.287 470.5,358.5C 468.769,356.655 467.102,354.822 465.5,353C 468.045,348.707 470.212,344.207 472,339.5C 472.812,334.204 473.312,329.037 473.5,324C 480.888,325.694 487.554,329.027 493.5,334C 493.043,334.414 492.709,334.914 492.5,335.5C 494.747,336.245 496.58,337.578 498,339.5C 499.654,346.051 500.82,352.718 501.5,359.5C 501.221,361.343 500.887,363.177 500.5,365C 501.036,369.613 502.703,370.28 505.5,367C 508.833,366.667 512.167,366.333 515.5,366C 516.833,363.667 518.167,361.333 519.5,359C 524.167,358.333 528.833,358.333 533.5,359C 536.349,361.559 537.183,364.726 536,368.5C 532.204,379.755 528.704,391.088 525.5,402.5C 523.833,402.5 522.167,402.5 520.5,402.5 Z"/></g>
<g><path style="opacity:1" fill="#140e04" d="M 444.5,327.5 C 445.675,327.281 446.675,327.614 447.5,328.5C 446.125,331.729 443.792,332.896 440.5,332C 441.357,329.981 442.691,328.481 444.5,327.5 Z"/></g>
<g><path style="opacity:1" fill="#191205" d="M 343.5,332.5 C 345.912,332.694 346.912,334.027 346.5,336.5C 343.318,337.03 340.318,338.03 337.5,339.5C 337.351,338.448 337.517,337.448 338,336.5C 340.015,335.303 341.849,333.97 343.5,332.5 Z"/></g>
<g><path style="opacity:1" fill="#564013" d="M 431.5,334.5 C 435.588,334.218 436.088,334.885 433,336.5C 431.97,336.164 431.47,335.497 431.5,334.5 Z"/></g>
<g><path style="opacity:1" fill="#f9b72e" d="M 193.5,337.5 C 201.381,340.774 209.048,344.607 216.5,349C 222.315,351.575 228.315,353.575 234.5,355C 236,356.5 237.5,358 239,359.5C 243.836,375.838 250.836,391.172 260,405.5C 264.467,410.968 269.3,416.135 274.5,421C 279.788,424.232 284.622,428.065 289,432.5C 290.715,438.264 292.715,443.93 295,449.5C 295.667,451.5 295.667,453.5 295,455.5C 282.699,448.87 271.199,441.036 260.5,432C 256.533,429.232 252.2,427.898 247.5,428C 251.635,434.813 255.802,441.646 260,448.5C 260.495,450.473 260.662,452.473 260.5,454.5C 256.445,454.176 252.445,454.509 248.5,455.5C 250.494,458.85 253.494,460.35 257.5,460C 259.007,460.837 259.507,462.004 259,463.5C 239.388,493.901 211.555,511.568 175.5,516.5C 173.109,516.441 170.775,516.107 168.5,515.5C 168.167,514.667 167.833,513.833 167.5,513C 173.165,495.056 173.998,476.89 170,458.5C 165.681,445.19 158.348,433.856 148,424.5C 147.493,423.004 147.993,421.837 149.5,421C 147.5,421.333 145.5,421.667 143.5,422C 140.764,420.638 138.431,418.804 136.5,416.5C 141.091,411.195 146.758,407.362 153.5,405C 162.775,400.644 172.441,398.811 182.5,399.5C 185.728,407.966 190.894,414.966 198,420.5C 196.607,415.027 194.607,409.694 192,404.5C 191.663,401.139 191.163,397.806 190.5,394.5C 190.833,393.833 191.167,393.167 191.5,392.5C 192.85,393.95 194.516,394.617 196.5,394.5C 196.5,393.167 196.5,391.833 196.5,390.5C 193.606,390.958 191.106,390.291 189,388.5C 187.348,371.181 188.848,354.181 193.5,337.5 Z"/></g>
<g><path style="opacity:1" fill="#1e1608" d="M 482.5,340.5 C 484.948,340.085 486.281,341.085 486.5,343.5C 485.387,345.784 484.387,348.117 483.5,350.5C 481.577,347.252 481.244,343.919 482.5,340.5 Z"/></g>
<g><path style="opacity:1" fill="#f6b52d" d="M 133.5,439.5 C 131.833,439.5 130.167,439.5 128.5,439.5C 128.785,437.712 128.452,436.045 127.5,434.5C 126.604,433.494 125.938,433.494 125.5,434.5C 126.127,435.417 126.461,436.417 126.5,437.5C 127.639,440.004 128.306,442.67 128.5,445.5C 130.942,445.881 131.609,445.214 130.5,443.5C 131.243,442.818 131.909,442.151 132.5,441.5C 133.833,441.5 135.167,441.5 136.5,441.5C 137.186,440.152 138.186,438.985 139.5,438C 138.584,437.626 137.75,437.126 137,436.5C 135.76,431.521 133.594,427.021 130.5,423C 130.667,422.5 130.833,422 131,421.5C 146.273,427.44 156.94,438.107 163,453.5C 168.733,470.093 168.9,486.759 163.5,503.5C 161.712,503.785 160.045,503.452 158.5,502.5C 159.843,500.216 159.176,499.383 156.5,500C 156.833,500.333 157.167,500.667 157.5,501C 155.833,501.333 154.167,501.667 152.5,502C 154.194,503.939 156.027,505.772 158,507.5C 158.667,508.833 158.667,510.167 158,511.5C 154.378,516.05 149.878,518.383 144.5,518.5C 145.925,513.218 146.758,507.885 147,502.5C 141.977,511.195 135.81,519.028 128.5,526C 122.987,530.171 118.987,529.171 116.5,523C 118.266,518.929 119.932,514.929 121.5,511C 119.765,509.818 118.765,508.151 118.5,506C 120.367,499.868 124.367,496.201 130.5,495C 130,494.5 129.5,494 129,493.5C 125.943,494.451 122.777,494.784 119.5,494.5C 119.512,498.446 117.512,500.113 113.5,499.5C 115.685,495.116 116.685,490.449 116.5,485.5C 117.5,485.5 118.5,485.5 119.5,485.5C 119.452,482.365 117.785,480.698 114.5,480.5C 114.069,479.707 113.735,478.873 113.5,478C 116.083,474.413 118.25,470.58 120,466.5C 120.937,461.597 120.27,456.93 118,452.5C 117.503,449.854 117.336,447.187 117.5,444.5C 112.581,444.205 108.581,442.038 105.5,438C 100.833,437.333 96.1667,437.333 91.5,438C 89.2608,440.973 86.5941,441.307 83.5,439C 79.8333,438.333 76.1667,438.333 72.5,439C 78.5402,442.128 84.3735,445.628 90,449.5C 92.4902,442.84 96.9902,441.007 103.5,444C 109.759,449.462 112.926,456.296 113,464.5C 111.939,467.562 110.106,470.062 107.5,472C 99.5174,478.216 90.5174,481.216 80.5,481C 50.5015,472.344 49.8348,474.344 78.5,487C 88.6776,488.44 98.0109,486.274 106.5,480.5C 109.892,482.619 111.059,485.619 110,489.5C 104.437,498.875 96.2699,504.708 85.5,507C 74.6275,505.376 63.6275,503.876 52.5,502.5C 51.9315,505.588 51.9315,508.588 52.5,511.5C 53.7114,509.05 55.378,507.05 57.5,505.5C 65.1966,509.023 73.1966,511.357 81.5,512.5C 90.0099,511.941 97.6766,509.108 104.5,504C 106.579,503.192 108.579,503.359 110.5,504.5C 113.554,508.25 114.054,512.25 112,516.5C 104.569,526.3 94.7353,530.8 82.5,530C 76.1177,527.071 69.451,526.071 62.5,527C 63.9842,528.574 65.6508,529.907 67.5,531C 74.4707,533.594 81.6373,535.428 89,536.5C 91.5912,536.435 94.0912,535.935 96.5,535C 101.052,532.557 105.718,530.39 110.5,528.5C 112.425,528.59 113.592,529.59 114,531.5C 114.581,540.158 110.748,545.992 102.5,549C 97.2375,550.439 91.9042,550.772 86.5,550C 76.07,548.318 65.7367,546.318 55.5,544C 50.0428,540.264 46.7095,535.097 45.5,528.5C 47.1561,526.94 49.1561,525.94 51.5,525.5C 52.675,525.719 53.675,525.386 54.5,524.5C 53.8999,520.524 51.5666,518.357 47.5,518C 45.582,515.072 42.9153,513.406 39.5,513C 38.5399,511.581 37.7065,510.081 37,508.5C 37.4565,499.149 37.4565,489.815 37,480.5C 39.0398,474.754 41.8731,469.421 45.5,464.5C 40.4328,454.44 40.5995,444.773 46,435.5C 52.955,427.357 61.6217,422.024 72,419.5C 73.2259,419.645 74.3926,419.978 75.5,420.5C 75.109,419.282 75.7756,418.448 77.5,418C 83.1581,415.796 88.4914,416.463 93.5,420C 95.4727,420.495 97.4727,420.662 99.5,420.5C 99.9452,417.635 99.2785,415.135 97.5,413C 98.938,412.781 100.271,412.281 101.5,411.5C 99.5,410.833 97.5,410.167 95.5,409.5C 91.5264,403.693 87.3597,398.026 83,392.5C 80.5306,388.106 79.5306,383.439 80,378.5C 81.1133,380.329 82.6133,381.163 84.5,381C 83.3783,378.876 81.8783,377.043 80,375.5C 80.6219,363.64 85.1219,353.473 93.5,345C 99.5215,341.271 105.855,340.604 112.5,343C 114.39,344.078 115.39,345.745 115.5,348C 112.619,356.353 110.119,364.853 108,373.5C 106.081,385.74 107.748,397.406 113,408.5C 120.047,416.545 126.713,424.878 133,433.5C 134.542,435.565 134.709,437.565 133.5,439.5 Z"/></g>
<g><path style="opacity:1" fill="#201807" d="M 35.5,342.5 C 36.675,342.281 37.675,342.614 38.5,343.5C 36.9483,344.798 35.9483,344.465 35.5,342.5 Z"/></g>
<g><path style="opacity:1" fill="#6f521a" d="M 140.5,347.5 C 142.337,347.639 142.67,348.306 141.5,349.5C 140.702,349.043 140.369,348.376 140.5,347.5 Z"/></g>
<g><path style="opacity:1" fill="#614716" d="M 159.5,347.5 C 161.337,347.639 161.67,348.306 160.5,349.5C 159.702,349.043 159.369,348.376 159.5,347.5 Z"/></g>
<g><path style="opacity:1" fill="#3c2d0e" d="M 17.5,350.5 C 19.337,350.639 19.6704,351.306 18.5,352.5C 17.7025,352.043 17.3691,351.376 17.5,350.5 Z"/></g>
<g><path style="opacity:1" fill="#1e1708" d="M 52.5,352.5 C 53.9778,352.238 55.3112,352.571 56.5,353.5C 55.8333,353.833 55.1667,354.167 54.5,354.5C 53.2867,354.253 52.62,353.586 52.5,352.5 Z"/></g>
<g><path style="opacity:1" fill="#171105" d="M 133.5,354.5 C 134.649,354.791 135.316,355.624 135.5,357C 135.167,357.833 134.833,358.667 134.5,359.5C 133.548,357.955 133.215,356.288 133.5,354.5 Z"/></g>
<g><path style="opacity:1" fill="#140e04" d="M 488.5,356.5 C 490.117,357.038 491.784,357.371 493.5,357.5C 493.5,359.167 493.5,360.833 493.5,362.5C 491.5,362.5 489.5,362.5 487.5,362.5C 487.517,360.435 487.85,358.435 488.5,356.5 Z"/></g>
<g><path style="opacity:1" fill="#150f04" d="M 429.5,361.5 C 431.977,361.051 433.977,361.717 435.5,363.5C 434.675,364.386 433.675,364.719 432.5,364.5C 432.5,365.5 432.5,366.5 432.5,367.5C 430.833,367.5 429.167,367.5 427.5,367.5C 427.253,365.142 427.919,363.142 429.5,361.5 Z"/></g>
<g><path style="opacity:1" fill="#1b1405" d="M 472.5,361.5 C 474.337,361.639 474.67,362.306 473.5,363.5C 472.702,363.043 472.369,362.376 472.5,361.5 Z"/></g>
<g><path style="opacity:1" fill="#120d03" d="M 481.5,362.5 C 484.588,362.197 486.254,363.53 486.5,366.5C 483.454,366.817 481.787,365.484 481.5,362.5 Z"/></g>
<g><path style="opacity:1" fill="#140e04" d="M 409.5,366.5 C 413.938,365.425 415.938,367.092 415.5,371.5C 411.651,371.981 409.651,370.314 409.5,366.5 Z"/></g>
<g><path style="opacity:1" fill="#100b03" d="M 479.5,369.5 C 480.833,369.5 482.167,369.5 483.5,369.5C 484.167,373.5 482.5,375.167 478.5,374.5C 478.366,372.708 478.699,371.042 479.5,369.5 Z"/></g>
<g><path style="opacity:1" fill="#0d0802" d="M 56.5,374.5 C 53.3752,375.479 50.0419,375.813 46.5,375.5C 44.8839,374.011 42.8839,373.011 40.5,372.5C 45.467,371.338 50.467,371.171 55.5,372C 56.2524,372.671 56.5858,373.504 56.5,374.5 Z"/></g>
<g><path style="opacity:1" fill="#5a4211" d="M 65.5,370.5 C 65.8076,372.924 65.4742,375.257 64.5,377.5C 63.8933,377.376 63.56,377.043 63.5,376.5C 64.1667,374.5 64.8333,372.5 65.5,370.5 Z"/></g>
<g><path style="opacity:1" fill="#070501" d="M 197.5,374.5 C 200.665,373.964 203.331,374.797 205.5,377C 210.418,377.195 215.251,377.695 220,378.5C 221.224,383.386 221.891,388.386 222,393.5C 223.42,395.444 224.92,397.277 226.5,399C 224.224,405.404 220.891,406.071 216.5,401C 214.5,400.667 212.5,400.333 210.5,400C 205.972,395.972 201.972,391.472 198.5,386.5C 199.498,383.972 200.331,383.972 201,386.5C 201.952,382.885 200.619,380.552 197,379.5C 196.36,377.735 196.527,376.068 197.5,374.5 Z"/></g>
<g><path style="opacity:1" fill="#a6791f" d="M 56.5,374.5 C 57.791,374.263 58.791,374.596 59.5,375.5C 58.1667,375.5 57.5,376.167 57.5,377.5C 53.7272,376.897 50.0606,376.23 46.5,375.5C 50.0419,375.813 53.3752,375.479 56.5,374.5 Z"/></g>
<g><path style="opacity:1" fill="#765716" d="M 33.5,385.5 C 30.6122,384.99 28.2789,385.656 26.5,387.5C 25.596,386.791 25.2627,385.791 25.5,384.5C 28.3854,384.194 31.0521,384.527 33.5,385.5 Z"/></g>
<g><path style="opacity:1" fill="#120d04" d="M 522.5,384.5 C 525.105,386.76 524.938,389.094 522,391.5C 521.498,394.513 520.998,397.513 520.5,400.5C 518.365,400.853 517.032,400.02 516.5,398C 518.109,393.286 520.109,388.786 522.5,384.5 Z"/></g>
<g><path style="opacity:1" fill="#040200" d="M 33.5,385.5 C 31.3432,386.407 29.0098,387.073 26.5,387.5C 28.2789,385.656 30.6122,384.99 33.5,385.5 Z"/></g>
<g><path style="opacity:1" fill="#100b02" d="M 47.5,384.5 C 48.2389,384.369 48.9056,384.536 49.5,385C 48.5342,386.678 47.2009,387.345 45.5,387C 46.3805,386.292 47.0472,385.458 47.5,384.5 Z"/></g>
<g><path style="opacity:1" fill="#271d0a" d="M 59.5,384.5 C 61.561,385.751 61.8943,387.418 60.5,389.5C 59.5481,387.955 59.2148,386.288 59.5,384.5 Z"/></g>
<g><path style="opacity:1" fill="#1b1406" d="M 472.5,388.5 C 474.5,388.5 476.5,388.5 478.5,388.5C 478.5,389.5 478.5,390.5 478.5,391.5C 476.801,391.66 475.134,391.494 473.5,391C 472.748,390.329 472.414,389.496 472.5,388.5 Z"/></g>
<g><path style="opacity:1" fill="#291e0a" d="M 33.5,388.5 C 34.3764,388.369 35.0431,388.702 35.5,389.5C 31.499,393.796 30.8324,393.462 33.5,388.5 Z"/></g>
<g><path style="opacity:1" fill="#000000" d="M 42.5,389.5 C 44.337,389.639 44.6704,390.306 43.5,391.5C 42.7025,391.043 42.3691,390.376 42.5,389.5 Z"/></g>
<g><path style="opacity:1" fill="#0b0701" d="M 127.5,394.5 C 130.001,394.511 130.168,395.178 128,396.5C 127.536,395.906 127.369,395.239 127.5,394.5 Z"/></g>
<g><path style="opacity:1" fill="#0d0902" d="M 489.5,394.5 C 492.518,394.335 495.518,394.502 498.5,395C 501.574,398.109 500.907,399.942 496.5,400.5C 493.658,399.185 490.658,398.185 487.5,397.5C 488.193,396.482 488.859,395.482 489.5,394.5 Z"/></g>
<g><path style="opacity:1" fill="#271d0b" d="M 99.5,397.5 C 101.827,397.247 103.827,397.914 105.5,399.5C 105,399.833 104.5,400.167 104,400.5C 101.815,400.302 100.315,399.302 99.5,397.5 Z"/></g>
<g><path style="opacity:1" fill="#070401" d="M 472.5,402.5 C 475.62,403.86 478.953,404.693 482.5,405C 477.695,409.013 474.361,408.18 472.5,402.5 Z"/></g>
<g><path style="opacity:1" fill="#533d13" d="M 520.5,402.5 C 519.081,403.451 517.415,403.784 515.5,403.5C 513.804,403.315 512.471,402.481 511.5,401C 512,400.833 512.5,400.667 513,400.5C 515.256,402.085 517.756,402.752 520.5,402.5 Z"/></g>
<g><path style="opacity:1" fill="#1e1607" d="M 424.5,403.5 C 426.465,403.948 426.798,404.948 425.5,406.5C 424.614,405.675 424.281,404.675 424.5,403.5 Z"/></g>
<g><path style="opacity:1" fill="#0b0701" d="M 38.5,406.5 C 46.6761,405.146 48.3427,407.646 43.5,414C 41.0288,414.706 38.6954,414.373 36.5,413C 38.0163,411.103 38.683,408.936 38.5,406.5 Z"/></g>
<g><path style="opacity:1" fill="#130d03" d="M 203.5,408.5 C 207.534,408.672 211.534,409.172 215.5,410C 211.918,411.246 209.251,413.58 207.5,417C 205.323,418.202 202.989,418.702 200.5,418.5C 199.976,414.572 200.976,411.239 203.5,408.5 Z"/></g>
<g><path style="opacity:1" fill="#825f1a" d="M 128.5,439.5 C 127.833,438.833 127.167,438.167 126.5,437.5C 126.461,436.417 126.127,435.417 125.5,434.5C 125.938,433.494 126.604,433.494 127.5,434.5C 128.452,436.045 128.785,437.712 128.5,439.5 Z"/></g>
<g><path style="opacity:1" fill="#0c0802" d="M 210.5,438.5 C 215.01,444.42 221.01,447.087 228.5,446.5C 228.351,447.552 228.517,448.552 229,449.5C 230.955,450.453 232.622,451.787 234,453.5C 234.749,454.635 234.583,455.635 233.5,456.5C 232.393,455.978 231.226,455.645 230,455.5C 226.318,457.264 222.485,457.764 218.5,457C 216.123,454.492 213.789,451.992 211.5,449.5C 212.705,447.879 212.539,446.546 211,445.5C 210.503,443.19 210.337,440.857 210.5,438.5 Z"/></g>
<g><path style="opacity:1" fill="#271d0b" d="M 126.5,437.5 C 127.167,438.167 127.833,438.833 128.5,439.5C 129.833,440.167 131.167,440.833 132.5,441.5C 131.909,442.151 131.243,442.818 130.5,443.5C 131.609,445.214 130.942,445.881 128.5,445.5C 128.306,442.67 127.639,440.004 126.5,437.5 Z"/></g>
<g><path style="opacity:1" fill="#936c1b" d="M 128.5,439.5 C 130.167,439.5 131.833,439.5 133.5,439.5C 134.5,440.167 135.5,440.833 136.5,441.5C 135.167,441.5 133.833,441.5 132.5,441.5C 131.167,440.833 129.833,440.167 128.5,439.5 Z"/></g>
<g><path style="opacity:1" fill="#1b1405" d="M 120.5,440.5 C 122.337,440.639 122.67,441.306 121.5,442.5C 120.702,442.043 120.369,441.376 120.5,440.5 Z"/></g>
<g><path style="opacity:1" fill="#150f04" d="M 65.5,444.5 C 66.2389,444.369 66.9056,444.536 67.5,445C 66.2888,445.893 66.2888,446.726 67.5,447.5C 69.4086,448.348 71.4086,448.682 73.5,448.5C 73.5,449.5 73.5,450.5 73.5,451.5C 75.0442,452.728 73.3775,452.894 68.5,452C 65.5,450.926 62.5,450.093 59.5,449.5C 61.5,449.5 63.5,449.5 65.5,449.5C 65.5,447.833 65.5,446.167 65.5,444.5 Z"/></g>
<g><path style="opacity:1" fill="#7a5a17" d="M 65.5,444.5 C 65.5,446.167 65.5,447.833 65.5,449.5C 63.5,449.5 61.5,449.5 59.5,449.5C 60.9187,448.549 62.5853,448.216 64.5,448.5C 64.2322,446.901 64.5655,445.568 65.5,444.5 Z"/></g>
<g><path style="opacity:1" fill="#513c13" d="M 50.5,449.5 C 51.8488,448.203 53.1821,448.37 54.5,450C 53.0715,450.579 51.7382,450.412 50.5,449.5 Z"/></g>
<g><path style="opacity:1" fill="#030100" d="M 207.5,455.5 C 210.084,456.048 211.084,457.715 210.5,460.5C 209.5,460.5 208.5,460.5 207.5,460.5C 207.5,458.833 207.5,457.167 207.5,455.5 Z"/></g>
<g><path style="opacity:1" fill="#000000" d="M 327.5,455.5 C 329.337,455.639 329.67,456.306 328.5,457.5C 327.702,457.043 327.369,456.376 327.5,455.5 Z"/></g>
<g><path style="opacity:1" fill="#010100" d="M 125.5,464.5 C 127.185,463.156 128.852,463.323 130.5,465C 128.735,465.64 127.068,465.473 125.5,464.5 Z"/></g>
<g><path style="opacity:1" fill="#1b1407" d="M 139.5,463.5 C 140.675,463.281 141.675,463.614 142.5,464.5C 140.948,465.798 139.948,465.465 139.5,463.5 Z"/></g>
<g><path style="opacity:1" fill="#3a2a0e" d="M 94.5,471.5 C 96.6661,470.371 98.6661,470.871 100.5,473C 98.1599,473.748 96.1599,473.248 94.5,471.5 Z"/></g>
<g><path style="opacity:1" fill="#edae2c" d="M 279.5,475.5 C 283.339,477.245 287.339,478.745 291.5,480C 292.337,481.011 292.67,482.178 292.5,483.5C 287.182,485.156 281.849,486.822 276.5,488.5C 277.302,484.1 278.302,479.767 279.5,475.5 Z"/></g>
<g><path style="opacity:1" fill="#1f1808" d="M 119.5,480.5 C 119.56,479.957 119.893,479.624 120.5,479.5C 123.005,481.253 125.671,482.753 128.5,484C 129.38,485.356 129.714,486.856 129.5,488.5C 128.5,488.5 127.5,488.5 126.5,488.5C 126.657,487.127 126.49,485.793 126,484.5C 123.722,483.281 121.555,481.948 119.5,480.5 Z"/></g>
<g><path style="opacity:1" fill="#0a0601" d="M 140.5,483.5 C 141.043,483.56 141.376,483.893 141.5,484.5C 139.579,485.641 137.579,485.808 135.5,485C 137.382,484.802 139.048,484.302 140.5,483.5 Z"/></g>
<g><path style="opacity:1" fill="#604615" d="M 132.5,489.5 C 134.484,489.383 136.15,490.05 137.5,491.5C 134.83,493.09 133.163,492.423 132.5,489.5 Z"/></g>
<g><path style="opacity:1" fill="#6b4e15" d="M 59.5,493.5 C 61.9701,494.36 62.1368,495.694 60,497.5C 59.51,496.207 59.3433,494.873 59.5,493.5 Z"/></g>
<g><path style="opacity:1" fill="#1d1607" d="M 141.5,494.5 C 142.542,493.209 143.708,493.209 145,494.5C 145.781,495.944 145.614,497.277 144.5,498.5C 143.141,497.376 142.141,496.042 141.5,494.5 Z"/></g>
<g><path style="opacity:1" fill="#31240e" d="M 149.5,493.5 C 151.723,494.114 153.389,495.448 154.5,497.5C 153.311,498.429 151.978,498.762 150.5,498.5C 150.371,496.784 150.038,495.117 149.5,493.5 Z"/></g>
<g><path style="opacity:1" fill="#090601" d="M 369.5,494.5 C 371.5,494.5 373.5,494.5 375.5,494.5C 375.5,495.5 375.5,496.5 375.5,497.5C 373.5,497.5 371.5,497.5 369.5,497.5C 369.5,496.5 369.5,495.5 369.5,494.5 Z"/></g>
<g><path style="opacity:1" fill="#130d03" d="M 160.5,495.5 C 162.337,495.639 162.67,496.306 161.5,497.5C 160.702,497.043 160.369,496.376 160.5,495.5 Z"/></g>
<g><path style="opacity:1" fill="#543e14" d="M 197.5,497.5 C 199.337,497.639 199.67,498.306 198.5,499.5C 197.702,499.043 197.369,498.376 197.5,497.5 Z"/></g>
<g><path style="opacity:1" fill="#f9b72e" d="M 306.5,500.5 C 308.857,500.337 311.19,500.503 313.5,501C 321.185,508.502 329.852,514.502 339.5,519C 337.948,523.951 335.281,528.117 331.5,531.5C 328.048,526.312 323.881,521.645 319,517.5C 320.362,520.926 321.862,524.426 323.5,528C 323.507,529.812 322.84,531.312 321.5,532.5C 322.681,534.198 322.681,535.865 321.5,537.5C 316.767,537.566 314.433,539.899 314.5,544.5C 309.048,543.987 303.714,542.987 298.5,541.5C 298.5,542.833 298.5,544.167 298.5,545.5C 299.5,545.5 300.5,545.5 301.5,545.5C 300.873,549.46 298.54,551.794 294.5,552.5C 294.716,554.681 293.883,556.347 292,557.5C 291.333,559.167 291.333,560.833 292,562.5C 295.018,562.981 297.852,563.981 300.5,565.5C 302.488,564.711 302.821,563.545 301.5,562C 297.118,561.997 295.451,559.831 296.5,555.5C 300.339,555.332 302.672,553.332 303.5,549.5C 306.754,548.19 309.254,549.19 311,552.5C 313.356,556.785 312.356,560.119 308,562.5C 307.764,564.764 307.264,566.931 306.5,569C 280.763,571.304 255.096,570.638 229.5,567C 228.536,562.934 228.203,558.767 228.5,554.5C 229.873,554.657 231.207,554.49 232.5,554C 234.348,551.821 236.515,549.987 239,548.5C 240.387,543.396 242.054,538.396 244,533.5C 255.927,523.778 269.094,515.945 283.5,510C 291.256,506.781 298.922,503.614 306.5,500.5 Z"/></g>
<g><path style="opacity:1" fill="#000000" d="M 44.5,501.5 C 45.675,501.281 46.675,501.614 47.5,502.5C 45.9483,503.798 44.9483,503.465 44.5,501.5 Z"/></g>
<g><path style="opacity:1" fill="#0f0a02" d="M 299.5,514.5 C 301.78,515.64 304.114,516.807 306.5,518C 302.716,519.31 300.382,518.143 299.5,514.5 Z"/></g>
<g><path style="opacity:1" fill="#443210" d="M 123.5,512.5 C 126.817,513.305 129.483,515.139 131.5,518C 130.833,518.667 130.167,518.667 129.5,518C 127.525,515.908 125.525,514.075 123.5,512.5 Z"/></g>
<g><path style="opacity:1" fill="#805e18" d="M 51.5,525.5 C 49.1561,525.94 47.1561,526.94 45.5,528.5C 44.596,527.791 44.2627,526.791 44.5,525.5C 46.8333,525.5 49.1667,525.5 51.5,525.5 Z"/></g>
<g><path style="opacity:1" fill="#f3b22d" d="M 346.5,530.5 C 347.552,530.351 348.552,530.517 349.5,531C 352.516,533.736 355.349,536.57 358,539.5C 358.667,541.833 358.667,544.167 358,546.5C 354.068,549.44 349.902,551.94 345.5,554C 342.77,554.728 340.103,554.562 337.5,553.5C 336.674,555.959 336.007,558.459 335.5,561C 336.022,561.95 336.689,562.784 337.5,563.5C 333.655,565.128 329.655,566.128 325.5,566.5C 325.755,563.984 326.589,561.65 328,559.5C 331.656,555.521 334.822,551.188 337.5,546.5C 338.826,547.99 340.326,549.324 342,550.5C 342.667,549.5 342.667,548.5 342,547.5C 340.745,546.789 339.579,545.956 338.5,545C 341.572,540.353 344.238,535.52 346.5,530.5 Z"/></g>
<g><path style="opacity:1" fill="#171105" d="M 369.5,542.5 C 374.457,542.79 377.123,545.457 377.5,550.5C 371.5,551.167 368.833,548.5 369.5,542.5 Z"/></g>
<g><path style="opacity:1" fill="#e4a72a" d="M 203.5,543.5 C 204.497,543.47 205.164,543.97 205.5,545C 204.173,549.493 202.173,553.659 199.5,557.5C 198.667,557.833 197.833,558.167 197,558.5C 192.784,557.308 188.618,555.975 184.5,554.5C 184.167,554 183.833,553.5 183.5,553C 184.885,551.403 185.551,549.57 185.5,547.5C 182.167,547.5 180.5,549.167 180.5,552.5C 174.743,550.457 169.076,548.123 163.5,545.5C 176.997,546.053 190.331,545.386 203.5,543.5 Z"/></g>
<g><path style="opacity:1" fill="#231a07" d="M 284.5,543.5 C 286.048,543.821 286.715,544.821 286.5,546.5C 283.752,546.598 283.086,545.598 284.5,543.5 Z"/></g>
</svg>
